<svg width="49" height="48" viewBox="0 0 49 48" fill="none" xmlns="http://www.w3.org/2000/svg">
<g clip-path="url(#clip0_4631_62511)" filter="url(#filter0_d_4631_62511)">
<path fill-rule="evenodd" clip-rule="evenodd" d="M32.8137 13.989C32.7853 14.1412 32.8044 14.302 33.0002 14.4978C33.4407 14.9383 33.6672 15.4975 33.6535 16.0975C33.6409 16.6461 33.4307 17.1279 33.2044 17.5015C32.758 18.2385 32.0224 18.9194 31.351 19.4585C30.6548 20.0174 29.9147 20.5119 29.3577 20.8623C29.0772 21.0389 28.8384 21.1818 28.6684 21.2813C28.5834 21.3311 28.5154 21.3702 28.4677 21.3973L28.4119 21.4288L28.3961 21.4376L28.3899 21.4411C28.3897 21.4412 28.389 21.4416 27.7829 20.3483L28.3899 21.4411C27.7861 21.7758 27.0244 21.5582 26.6897 20.9544C26.3551 20.3507 26.573 19.5901 27.1765 19.2553C27.1765 19.2553 27.1765 19.2553 27.1765 19.2553L27.1784 19.2542L27.1883 19.2487L27.2318 19.2241C27.271 19.2018 27.3299 19.168 27.4052 19.1239C27.556 19.0356 27.7718 18.9065 28.0264 18.7463C28.5398 18.4233 29.1923 17.9855 29.7858 17.5091C30.4039 17.0127 30.8548 16.5551 31.0661 16.2062C31.0826 16.1789 31.0961 16.1548 31.1072 16.1338C30.4169 15.3685 30.1883 14.4282 30.3563 13.5296C30.5252 12.6263 31.0735 11.8492 31.7628 11.3147C33.1823 10.214 35.452 9.96633 37.2502 11.7645C37.7383 12.2526 37.7383 13.0441 37.2502 13.5322C36.762 14.0204 35.9705 14.0204 35.4824 13.5322C34.6805 12.7304 33.8419 12.8661 33.2947 13.2903C33.0007 13.5183 32.8511 13.7891 32.8137 13.989Z" fill="#A9A9EE"/>
<path fill-rule="evenodd" clip-rule="evenodd" d="M28.4847 12.3271L34.059 17.9015C34.9833 18.8257 34.9833 20.3242 34.059 21.2484L32.9512 22.3562C32.9006 22.4069 32.8482 22.4547 32.7943 22.4998C33.3347 23.9525 33.6299 25.5244 33.6299 27.1652C33.6299 34.5566 27.638 40.5485 20.2466 40.5485C12.8552 40.5485 6.86328 34.5566 6.86328 27.1652C6.86328 19.7738 12.8552 13.7819 20.2466 13.7819C21.377 13.7819 22.4747 13.922 23.5232 14.1859C23.6386 13.913 23.8075 13.6573 24.0299 13.4349L25.1377 12.3271C26.062 11.4028 27.5604 11.4029 28.4847 12.3271Z" fill="url(#paint0_linear_4631_62511)"/>
<path fill-rule="evenodd" clip-rule="evenodd" d="M13.2139 19.7892C14.4253 18.3879 16.1785 17.2317 18.1157 17.2317C18.8061 17.2317 19.3657 17.7913 19.3657 18.4817C19.3657 19.172 18.8061 19.7317 18.1157 19.7317C17.1696 19.7317 16.0478 20.3338 15.1051 21.4242C14.1707 22.505 13.6157 23.8382 13.6157 24.9317C13.6157 25.6221 13.0561 26.1817 12.3657 26.1817C11.6754 26.1817 11.1157 25.6221 11.1157 24.9317C11.1157 23.0919 11.9941 21.2001 13.2139 19.7892Z" fill="#FDF3F4"/>
<path d="M36.3467 8.6487L37.2633 7.63204C37.6133 7.23204 38.28 7.49871 38.2467 8.04871L38.1633 9.41537L39.53 9.33204C40.0633 9.29871 40.33 9.96537 39.9467 10.3154L38.93 11.232L39.9467 12.1487C40.3467 12.4987 40.08 13.1654 39.53 13.132L38.1633 13.0487L38.2467 14.4154C38.28 14.9487 37.6133 15.2154 37.2633 14.832L36.3467 13.8154L35.43 14.832C35.08 15.232 34.4133 14.9654 34.4467 14.4154L34.53 13.0487L33.1633 13.132C32.63 13.1654 32.3633 12.4987 32.7467 12.1487L33.7633 11.232L32.7467 10.3154C32.3467 9.96537 32.6133 9.29871 33.1633 9.33204L34.53 9.41537L34.4467 8.04871C34.4133 7.51538 35.08 7.24871 35.43 7.63204L36.3467 8.6487Z" fill="#DD6875"/>
<path d="M36.3482 10.1003L36.7482 9.66694C36.8982 9.50027 37.1816 9.61694 37.1816 9.85028L37.1482 10.4336L37.7316 10.4003C37.9649 10.4003 38.0816 10.6669 37.9149 10.8336L37.4816 11.2336L37.9149 11.6336C38.0816 11.7836 37.9649 12.0669 37.7316 12.0669L37.1482 12.0336L37.1816 12.6169C37.1816 12.8503 36.9149 12.9669 36.7482 12.8003L36.3482 12.3669L35.9482 12.8003C35.7982 12.9669 35.5149 12.8503 35.5149 12.6169L35.5482 12.0336L34.9649 12.0669C34.7316 12.0669 34.6149 11.8003 34.7816 11.6336L35.2149 11.2336L34.7816 10.8336C34.6149 10.6836 34.7316 10.4003 34.9649 10.4003L35.5482 10.4336L35.5149 9.85028C35.5149 9.61694 35.7816 9.50027 35.9482 9.66694L36.3482 10.1003Z" fill="#FDF3F4"/>
</g>
<defs>
<filter id="filter0_d_4631_62511" x="0.5" y="0" width="48" height="48" filterUnits="userSpaceOnUse" color-interpolation-filters="sRGB">
<feFlood flood-opacity="0" result="BackgroundImageFix"/>
<feColorMatrix in="SourceAlpha" type="matrix" values="0 0 0 0 0 0 0 0 0 0 0 0 0 0 0 0 0 0 127 0" result="hardAlpha"/>
<feOffset dx="1"/>
<feGaussianBlur stdDeviation="2"/>
<feComposite in2="hardAlpha" operator="out"/>
<feColorMatrix type="matrix" values="0 0 0 0 0 0 0 0 0 0 0 0 0 0 0 0 0 0 0.1 0"/>
<feBlend mode="normal" in2="BackgroundImageFix" result="effect1_dropShadow_4631_62511"/>
<feBlend mode="normal" in="SourceGraphic" in2="effect1_dropShadow_4631_62511" result="shape"/>
</filter>
<linearGradient id="paint0_linear_4631_62511" x1="20.8078" y1="11.6339" x2="20.8078" y2="40.5485" gradientUnits="userSpaceOnUse">
<stop stop-color="#DD6875"/>
<stop offset="1" stop-color="#ED98A2"/>
</linearGradient>
<clipPath id="clip0_4631_62511">
<rect width="40" height="40" fill="white" transform="translate(3.5 4)"/>
</clipPath>
</defs>
</svg>
