<svg width="20" height="20" viewBox="0 0 20 20" fill="none" xmlns="http://www.w3.org/2000/svg">
<path d="M14.1667 1.66602L17.5 4.99935M17.5 4.99935L14.1667 8.33268M17.5 4.99935H6.5C5.09987 4.99935 4.3998 4.99935 3.86502 5.27183C3.39462 5.51152 3.01217 5.89397 2.77248 6.36437C2.5 6.89915 2.5 7.59922 2.5 8.99935V9.16602M2.5 14.9993H13.5C14.9001 14.9993 15.6002 14.9993 16.135 14.7269C16.6054 14.4872 16.9878 14.1047 17.2275 13.6343C17.5 13.0995 17.5 12.3995 17.5 10.9993V10.8327M2.5 14.9993L5.83333 18.3327M2.5 14.9993L5.83333 11.666" stroke="#A7B4C7" stroke-width="1.66667" stroke-linecap="round" stroke-linejoin="round"/>
</svg>
