<svg width="30" height="29" viewBox="0 0 30 29" fill="none" xmlns="http://www.w3.org/2000/svg">
<g filter="url(#filter0_d_2787_18689)">
<path d="M14.2014 18.0552C14.2014 16.6206 15.1656 15.4242 16.4772 15.0426H7.5426C7.3236 15.0426 7.1112 15.0174 6.9054 14.9736C5.5314 15.267 4.5 16.4856 4.5 17.9472C4.5 19.6278 5.862 20.9898 7.5426 20.9898H17.1354C15.5148 20.9898 14.2008 19.6758 14.2008 18.0552H14.2014Z" fill="#C2C2F3"/>
<path d="M16.8187 16.1405C15.8791 16.3559 15.2107 17.2829 15.4105 18.3233C15.5803 19.2071 16.4053 19.8156 17.3053 19.8156H25.5001V16.0938H17.2363C17.0929 16.0938 16.9531 16.1099 16.8187 16.1405Z" fill="#C2C2F3"/>
<path d="M17.1371 15.0426H16.4789C15.1673 15.4236 14.2031 16.6206 14.2031 18.0552C14.2031 19.6758 15.5171 20.9898 17.1377 20.9898H24.3281C24.9761 20.9898 25.5017 20.4642 25.5017 19.8162H17.3069C16.4069 19.8162 15.5819 19.2078 15.4121 18.324C15.2123 17.2836 15.8807 16.3566 16.8203 16.1412C16.9547 16.1106 17.0945 16.0944 17.2379 16.0944H25.5017C25.5017 15.5754 25.1675 15.1392 24.7043 14.9766C24.5855 15.0168 24.4607 15.0438 24.3281 15.0438H17.1377L17.1371 15.0426Z" fill="#8484E6"/>
<path d="M16.4772 15.0426H17.1354C15.5148 15.0426 14.2008 13.7286 14.2008 12.108C14.2008 10.6734 15.165 9.47697 16.4766 9.09537H7.5426C7.3236 9.09537 7.1112 9.07017 6.9054 9.02637C5.5314 9.31977 4.5 10.5384 4.5 12C4.5 13.4616 5.5314 14.6802 6.9054 14.9736C7.1112 15.0174 7.3236 15.0426 7.5426 15.0426H16.4772Z" fill="#8484E6"/>
<path d="M16.8187 10.1943C15.8791 10.4097 15.2107 11.3361 15.4105 12.3771C15.5803 13.2609 16.4053 13.8693 17.3053 13.8693H25.5001V10.1475H17.2363C17.0929 10.1475 16.9531 10.1637 16.8187 10.1943Z" fill="#C2C2F3"/>
<path d="M17.1371 9.09627H16.4789C15.1673 9.47727 14.2031 10.6743 14.2031 12.1089C14.2031 13.7295 15.5171 15.0435 17.1377 15.0435H24.3281C24.4607 15.0435 24.5855 15.0165 24.7043 14.9763C25.1669 14.8191 25.5017 14.3859 25.5017 13.8699H17.3069C16.4069 13.8699 15.5819 13.2615 15.4121 12.3777C15.2123 11.3367 15.8807 10.4103 16.8203 10.1949C16.9547 10.1643 17.0945 10.1481 17.2379 10.1481H25.5017C25.5017 9.62907 25.1675 9.19227 24.7043 9.03027C24.5855 9.07047 24.4607 9.09747 24.3281 9.09747H17.1377L17.1371 9.09627Z" fill="#6B6BE1"/>
<path d="M16.4772 9.09594H17.1354C15.5148 9.09594 14.2008 7.78194 14.2008 6.16134C14.2008 4.49514 15.498 3.14574 17.1354 3.03234V3.01074H7.5426C5.862 3.01074 4.5 4.37274 4.5 6.05334C4.5 7.51494 5.5314 8.73354 6.9054 9.02694C7.1112 9.07074 7.3236 9.09594 7.5426 9.09594H16.4772Z" fill="#6B6BE1"/>
<path d="M16.8168 4.247C16.2798 4.37 15.8316 4.7252 15.5832 5.2016C15.5694 5.228 15.5628 5.2586 15.5508 5.2856C15.4506 5.5028 15.384 5.7398 15.375 5.9924C15.3744 6.0146 15.3804 6.0386 15.3804 6.0608C15.3804 6.182 15.3852 6.3044 15.4092 6.4298C15.579 7.3136 16.404 7.922 17.304 7.922H25.4988V4.2002H17.235C17.0916 4.2002 16.9512 4.2164 16.8168 4.247Z" fill="#C2C2F3"/>
<path d="M25.5023 7.92272H17.3075C16.4075 7.92272 15.5825 7.31432 15.4127 6.43052C15.3887 6.30512 15.3839 6.18272 15.3839 6.06152C15.3839 6.03932 15.3779 6.01532 15.3785 5.99312C15.3875 5.73992 15.4541 5.50352 15.5543 5.28632C15.5669 5.25932 15.5729 5.22872 15.5867 5.20232C15.8351 4.72592 16.2833 4.37072 16.8203 4.24772C16.9547 4.21712 17.0945 4.20092 17.2379 4.20092H25.5017C25.5017 3.54392 24.9695 3.01172 24.3125 3.01172H17.3543C17.2799 3.01172 17.2109 3.02852 17.1377 3.03332C15.5003 3.14672 14.2031 4.49612 14.2031 6.16232C14.2031 7.78292 15.5171 9.09692 17.1377 9.09692H24.3281C24.4607 9.09692 24.5855 9.06992 24.7043 9.02972C25.1669 8.87252 25.5017 8.43932 25.5017 7.92332L25.5023 7.92272Z" fill="#6B6BE1"/>
</g>
<defs>
<filter id="filter0_d_2787_18689" x="-1" y="0" width="32" height="32" filterUnits="userSpaceOnUse" color-interpolation-filters="sRGB">
<feFlood flood-opacity="0" result="BackgroundImageFix"/>
<feColorMatrix in="SourceAlpha" type="matrix" values="0 0 0 0 0 0 0 0 0 0 0 0 0 0 0 0 0 0 127 0" result="hardAlpha"/>
<feOffset dy="4"/>
<feGaussianBlur stdDeviation="2"/>
<feComposite in2="hardAlpha" operator="out"/>
<feColorMatrix type="matrix" values="0 0 0 0 0 0 0 0 0 0 0 0 0 0 0 0 0 0 0.25 0"/>
<feBlend mode="normal" in2="BackgroundImageFix" result="effect1_dropShadow_2787_18689"/>
<feBlend mode="normal" in="SourceGraphic" in2="effect1_dropShadow_2787_18689" result="shape"/>
</filter>
</defs>
</svg>
