<svg width="24" height="24" viewBox="0 0 24 24" fill="none" xmlns="http://www.w3.org/2000/svg">
<path d="M6 3.01001H19C20.1 3.01001 21 3.91001 21 5.01001V7.01001C21 8.11001 20.1 9.01001 19 9.01001H6C4.34 9.01001 3 7.67001 3 6.01001C3 4.35001 4.34 3.01001 6 3.01001Z" fill="#6B6BE1"/>
<path d="M10.61 6.05C10.61 4.95 11.51 4.05 12.61 4.05H20.75C20.41 3.43 19.76 3 19 3H12.5C10.84 3 9.5 4.34 9.5 6C9.5 7.66 10.84 9 12.5 9H19C19.72 9 20.34 8.62 20.7 8.05H12.61C11.51 8.05 10.61 7.15 10.61 6.05Z" fill="#DFDFFA"/>
<path d="M6 9.01001H19C20.1 9.01001 21 9.91001 21 11.01V13.01C21 14.11 20.1 15.01 19 15.01H6C4.34 15.01 3 13.67 3 12.01C3 10.35 4.34 9.01001 6 9.01001Z" fill="#A9A9EE"/>
<path d="M10.61 12.05C10.61 10.95 11.51 10.05 12.61 10.05H20.75C20.41 9.43 19.76 9 19 9H12.5C10.84 9 9.5 10.34 9.5 12C9.5 13.66 10.84 15 12.5 15H19C19.72 15 20.34 14.62 20.7 14.05H12.61C11.51 14.05 10.61 13.15 10.61 12.05Z" fill="#DFDFFA"/>
<path d="M6 15.01H19C20.1 15.01 21 15.91 21 17.01V19.01C21 20.11 20.1 21.01 19 21.01H6C4.34 21.01 3 19.67 3 18.01C3 16.35 4.34 15.01 6 15.01Z" fill="#8484E6"/>
<path d="M10.61 18.05C10.61 16.95 11.51 16.05 12.61 16.05H20.75C20.41 15.43 19.76 15 19 15H12.5C10.84 15 9.5 16.34 9.5 18C9.5 19.66 10.84 21 12.5 21H19C19.72 21 20.34 20.62 20.7 20.05H12.61C11.51 20.05 10.61 19.15 10.61 18.05Z" fill="#DFDFFA"/>
</svg>
