<svg width="18" height="18" viewBox="0 0 18 18" fill="none" xmlns="http://www.w3.org/2000/svg">
<g id="Group">
<path id="Vector" d="M3 0.0100098H16C17.1 0.0100098 18 0.91001 18 2.01001V4.01001C18 5.11001 17.1 6.01001 16 6.01001H3C1.34 6.01001 0 4.67001 0 3.01001C0 1.35001 1.34 0.0100098 3 0.0100098Z" fill="#6B6BE1"/>
<path id="Vector_2" d="M7.61 3.05C7.61 1.95 8.51 1.05 9.61 1.05H17.75C17.41 0.43 16.76 0 16 0H9.5C7.84 0 6.5 1.34 6.5 3C6.5 4.66 7.84 6 9.5 6H16C16.72 6 17.34 5.62 17.7 5.05H9.61C8.51 5.05 7.61 4.15 7.61 3.05Z" fill="#DFDFFA"/>
<path id="Vector_3" d="M3 6.01001H16C17.1 6.01001 18 6.91001 18 8.01001V10.01C18 11.11 17.1 12.01 16 12.01H3C1.34 12.01 0 10.67 0 9.01001C0 7.35001 1.34 6.01001 3 6.01001Z" fill="#A9A9EE"/>
<path id="Vector_4" d="M7.61 9.05C7.61 7.95 8.51 7.05 9.61 7.05H17.75C17.41 6.43 16.76 6 16 6H9.5C7.84 6 6.5 7.34 6.5 9C6.5 10.66 7.84 12 9.5 12H16C16.72 12 17.34 11.62 17.7 11.05H9.61C8.51 11.05 7.61 10.15 7.61 9.05Z" fill="#DFDFFA"/>
<path id="Vector_5" d="M3 12.01H16C17.1 12.01 18 12.91 18 14.01V16.01C18 17.11 17.1 18.01 16 18.01H3C1.34 18.01 0 16.67 0 15.01C0 13.35 1.34 12.01 3 12.01Z" fill="#8484E6"/>
<path id="Vector_6" d="M7.61 15.05C7.61 13.95 8.51 13.05 9.61 13.05H17.75C17.41 12.43 16.76 12 16 12H9.5C7.84 12 6.5 13.34 6.5 15C6.5 16.66 7.84 18 9.5 18H16C16.72 18 17.34 17.62 17.7 17.05H9.61C8.51 17.05 7.61 16.15 7.61 15.05Z" fill="#DFDFFA"/>
</g>
</svg>
