<svg width="61" height="60" viewBox="0 0 61 60" fill="none" xmlns="http://www.w3.org/2000/svg">
<path d="M30.5 55C35.3325 55 39.25 51.0825 39.25 46.25C39.25 41.4175 35.3325 37.5 30.5 37.5C25.6675 37.5 21.75 41.4175 21.75 46.25C21.75 51.0825 25.6675 55 30.5 55Z" fill="#6B6BE1"/>
<path d="M30.5 15.0244C33.2614 15.0244 35.5 12.7858 35.5 10.0244C35.5 7.26299 33.2614 5.02441 30.5 5.02441C27.7386 5.02441 25.5 7.26299 25.5 10.0244C25.5 12.7858 27.7386 15.0244 30.5 15.0244Z" fill="#A9A9EE"/>
<path d="M30.5005 9.07471C40.3755 9.07471 48.3755 17.0747 48.3755 26.9497V36.8497H12.6255V26.9497C12.6255 17.0747 20.6255 9.07471 30.5005 9.07471Z" fill="url(#paint0_linear_4820_20934)"/>
<path d="M46.9753 46.25H14.0253C11.2503 46.25 9.42528 43.325 10.6503 40.85L12.6003 36.875H48.3503L50.3003 40.85C51.5253 43.35 49.7253 46.25 46.9253 46.25H46.9753Z" fill="#A9A9EE"/>
<defs>
<linearGradient id="paint0_linear_4820_20934" x1="47.0776" y1="37.087" x2="13.1515" y2="38.2166" gradientUnits="userSpaceOnUse">
<stop stop-color="#DDD9F8"/>
<stop offset="0.273644" stop-color="#E4E4FF"/>
<stop offset="0.610199" stop-color="#CCE4FF"/>
</linearGradient>
</defs>
</svg>
