<svg width="61" height="60" viewBox="0 0 61 60" fill="none" xmlns="http://www.w3.org/2000/svg">
<g clip-path="url(#clip0_1782_98191)">
<path d="M38.9016 48.1914C38.9016 52.8309 35.1411 56.5914 30.5016 56.5914C25.8621 56.5914 22.1016 52.8309 22.1016 48.1914H38.9016Z" fill="#8484E6"/>
<path d="M25.4414 8.47663C25.4414 5.67913 27.7094 3.41113 30.5069 3.41113C33.3044 3.41113 35.5724 5.67913 35.5724 8.47663H25.4429H25.4414Z" fill="#8484E6"/>
<path d="M9.66076 28.2366C9.66076 16.2651 19.7528 6.65158 31.8923 7.43758C42.9713 8.15458 51.3488 17.8491 51.3488 28.9506V38.0691L54.8948 44.2101C55.9163 45.9801 54.6398 48.1926 52.5953 48.1926H8.41276C6.36976 48.1926 5.09176 45.9801 6.11326 44.2101L9.65926 38.0691L9.66076 28.2366Z" fill="#C2C2F3"/>
</g>
<defs>
<clipPath id="clip0_1782_98191">
<rect width="60" height="60" fill="white" transform="translate(0.5)"/>
</clipPath>
</defs>
</svg>
