<svg width="19" height="20" viewBox="0 0 19 20" fill="none" xmlns="http://www.w3.org/2000/svg">
<g id="_&#235;&#160;&#136;&#236;&#157;&#180;&#236;&#150;&#180;_1" clip-path="url(#clip0_5472_23900)">
<path id="Vector" d="M9.5 19C14.7467 19 19 14.7467 19 9.5C19 4.25329 14.7467 0 9.5 0C4.25329 0 0 4.25329 0 9.5C0 14.7467 4.25329 19 9.5 19Z" fill="#C2C2F3"/>
<g id="Group">
<path id="Vector_2" d="M11.75 7.97998C12.3023 7.97998 12.75 7.53227 12.75 6.97998C12.75 6.4277 12.3023 5.97998 11.75 5.97998C11.1977 5.97998 10.75 6.4277 10.75 6.97998C10.75 7.53227 11.1977 7.97998 11.75 7.97998Z" fill="#414189"/>
<path id="Vector_3" d="M7.25 7.97998C7.80228 7.97998 8.25 7.53227 8.25 6.97998C8.25 6.4277 7.80228 5.97998 7.25 5.97998C6.69772 5.97998 6.25 6.4277 6.25 6.97998C6.25 7.53227 6.69772 7.97998 7.25 7.97998Z" fill="#414189"/>
</g>
<path id="Union" fill-rule="evenodd" clip-rule="evenodd" d="M8.87978 9.97997C8.24978 9.97997 7.69978 10.42 7.54978 11.03L6.20978 16.73C6.17978 16.84 6.16977 16.95 6.15977 17.06C6.15544 17.1147 6.15397 17.1679 6.1552 17.2196C6.08816 18.6206 7.20797 19.85 8.66976 19.85H10.1398C10.9698 19.85 11.6998 19.29 11.8998 18.48L11.9521 18.2697C12.0841 18.2543 12.216 18.2197 12.3443 18.1645L12.3535 18.1606C13.0636 17.8547 13.3914 17.0311 13.0855 16.321L12.4825 14.9207C12.4519 14.833 12.4148 14.748 12.3716 14.6665C12.3062 14.5312 12.2215 14.4109 12.1223 14.3075C11.7946 13.9383 11.3165 13.7 10.7698 13.7H9.73658L10.2198 11.65C10.4198 10.79 9.76978 9.96997 8.88978 9.96997L8.87978 9.97997Z" fill="#8484E6"/>
</g>
<defs>
<clipPath id="clip0_5472_23900">
<rect width="19" height="19.85" fill="white"/>
</clipPath>
</defs>
</svg>
