<svg width="32" height="29" viewBox="0 0 32 29" fill="none" xmlns="http://www.w3.org/2000/svg">
<g filter="url(#filter0_d_2794_22940)">
<path d="M16.091 18.2122H10.8644C10.4648 18.2122 10.1012 17.9824 9.92956 17.6212C9.75796 17.26 9.81016 16.8334 10.0628 16.5238L13.2632 12.601H10.6946C10.1234 12.601 9.66016 12.1378 9.66016 11.5666C9.66016 10.9954 10.1234 10.5322 10.6946 10.5322H15.443C15.8426 10.5322 16.2062 10.762 16.3778 11.1232C16.5494 11.4844 16.4972 11.911 16.2446 12.2206L13.0442 16.1434H16.0916C16.6628 16.1434 17.126 16.6066 17.126 17.1778C17.126 17.749 16.6622 18.2122 16.091 18.2122Z" fill="#6B6BE1"/>
<path d="M8.73852 20.4346H5.60232C5.31672 20.4346 5.05692 20.2702 4.93452 20.0128C4.81212 19.7548 4.84932 19.45 5.02992 19.2286L6.79272 17.068H5.50032C5.09232 17.068 4.76172 16.7374 4.76172 16.3294C4.76172 15.9214 5.09232 15.5908 5.50032 15.5908H8.34912C8.63472 15.5908 8.89452 15.7552 9.01692 16.0126C9.13932 16.2706 9.10212 16.5754 8.92152 16.7968L7.15872 18.9574H8.73852C9.14652 18.9574 9.47712 19.288 9.47712 19.696C9.47712 20.104 9.14652 20.4346 8.73852 20.4346Z" fill="#6B6BE1"/>
<path d="M26.5027 14.5767H18.0349C17.5783 14.5767 17.1625 14.3139 16.9669 13.9017C16.7713 13.4889 16.8301 13.0011 17.1187 12.6471L22.9615 5.48607H17.7607C17.1079 5.48607 16.5781 4.95687 16.5781 4.30407C16.5781 3.65127 17.1073 3.12207 17.7607 3.12207H25.4521C25.9087 3.12207 26.3245 3.38487 26.5201 3.79707C26.7157 4.20987 26.6569 4.69767 26.3683 5.05167L20.5255 12.2127H26.5027C27.1555 12.2127 27.6853 12.7419 27.6853 13.3947C27.6853 14.0475 27.1561 14.5767 26.5027 14.5767Z" fill="#6B6BE1"/>
</g>
<defs>
<filter id="filter0_d_2794_22940" x="0" y="0" width="32" height="32" filterUnits="userSpaceOnUse" color-interpolation-filters="sRGB">
<feFlood flood-opacity="0" result="BackgroundImageFix"/>
<feColorMatrix in="SourceAlpha" type="matrix" values="0 0 0 0 0 0 0 0 0 0 0 0 0 0 0 0 0 0 127 0" result="hardAlpha"/>
<feOffset dy="4"/>
<feGaussianBlur stdDeviation="2"/>
<feComposite in2="hardAlpha" operator="out"/>
<feColorMatrix type="matrix" values="0 0 0 0 0 0 0 0 0 0 0 0 0 0 0 0 0 0 0.25 0"/>
<feBlend mode="normal" in2="BackgroundImageFix" result="effect1_dropShadow_2794_22940"/>
<feBlend mode="normal" in="SourceGraphic" in2="effect1_dropShadow_2794_22940" result="shape"/>
</filter>
</defs>
</svg>
