<svg width="24" height="24" viewBox="0 0 24 24" fill="none" xmlns="http://www.w3.org/2000/svg">
<g clip-path="url(#clip0_4820_4865)">
<path d="M12.5 21C17.7467 21 22 16.7467 22 11.5C22 6.25329 17.7467 2 12.5 2C7.25329 2 3 6.25329 3 11.5C3 16.7467 7.25329 21 12.5 21Z" fill="#C2C2F3"/>
<path d="M14.75 9.97998C15.3023 9.97998 15.75 9.53227 15.75 8.97998C15.75 8.4277 15.3023 7.97998 14.75 7.97998C14.1977 7.97998 13.75 8.4277 13.75 8.97998C13.75 9.53227 14.1977 9.97998 14.75 9.97998Z" fill="#414189"/>
<path d="M10.25 9.97998C10.8023 9.97998 11.25 9.53227 11.25 8.97998C11.25 8.4277 10.8023 7.97998 10.25 7.97998C9.69772 7.97998 9.25 8.4277 9.25 8.97998C9.25 9.53227 9.69772 9.97998 10.25 9.97998Z" fill="#414189"/>
<path fill-rule="evenodd" clip-rule="evenodd" d="M11.8798 11.98C11.2498 11.98 10.6998 12.42 10.5498 13.03L9.20978 18.73C9.17978 18.84 9.16977 18.95 9.15977 19.06C9.15544 19.1147 9.15397 19.1679 9.1552 19.2196C9.08816 20.6206 10.208 21.85 11.6698 21.85H13.1398C13.9698 21.85 14.6998 21.29 14.8998 20.48L14.9521 20.2697C15.0841 20.2543 15.216 20.2197 15.3443 20.1645L15.3535 20.1606C16.0636 19.8547 16.3914 19.0311 16.0855 18.321L15.4825 16.9207C15.4519 16.833 15.4148 16.748 15.3716 16.6665C15.3062 16.5312 15.2215 16.4109 15.1223 16.3075C14.7946 15.9383 14.3165 15.7 13.7698 15.7H12.7366L13.2198 13.65C13.4198 12.79 12.7698 11.97 11.8898 11.97L11.8798 11.98Z" fill="#8484E6"/>
</g>
<defs>
<clipPath id="clip0_4820_4865">
<rect width="19" height="19.85" fill="white" transform="translate(3 2)"/>
</clipPath>
</defs>
</svg>
