<svg width="14" height="14" viewBox="0 0 14 14" fill="none" xmlns="http://www.w3.org/2000/svg">
<g id="clock-stopwatch">
<g id="Solid">
<path fill-rule="evenodd" clip-rule="evenodd" d="M5.83203 0.583008C5.50987 0.583008 5.2487 0.844175 5.2487 1.16634C5.2487 1.48851 5.50987 1.74967 5.83203 1.74967H6.41536V2.36334C3.62898 2.65483 1.45703 5.01111 1.45703 7.87467C1.45703 10.9353 3.93812 13.4163 6.9987 13.4163C10.0593 13.4163 12.5404 10.9353 12.5404 7.87467C12.5404 5.01111 10.3684 2.65483 7.58203 2.36334V1.74967H8.16537C8.48753 1.74967 8.7487 1.48851 8.7487 1.16634C8.7487 0.844175 8.48753 0.583008 8.16537 0.583008H5.83203ZM7.58203 5.54134C7.58203 5.21918 7.32086 4.95801 6.9987 4.95801C6.67653 4.95801 6.41536 5.21918 6.41536 5.54134V7.87467C6.41536 8.07958 6.52287 8.26946 6.69858 8.37488L8.15691 9.24988C8.43316 9.41563 8.79148 9.32605 8.95724 9.0498C9.12299 8.77354 9.03341 8.41522 8.75715 8.24947L7.58203 7.5444V5.54134Z" fill="#6B6BE1"/>
<path d="M10.5699 1.97408C10.7977 1.74627 11.167 1.74627 11.3948 1.97408L12.2698 2.84908C12.4976 3.07688 12.4976 3.44623 12.2698 3.67404C12.042 3.90184 11.6727 3.90184 11.4449 3.67404L10.5699 2.79904C10.3421 2.57123 10.3421 2.20188 10.5699 1.97408Z" fill="#6B6BE1"/>
<path d="M3.42753 1.97408C3.65534 2.20188 3.65534 2.57123 3.42753 2.79904L2.55253 3.67404C2.32473 3.90184 1.95538 3.90184 1.72758 3.67404C1.49977 3.44623 1.49977 3.07688 1.72758 2.84908L2.60258 1.97408C2.83038 1.74627 3.19973 1.74627 3.42753 1.97408Z" fill="#6B6BE1"/>
</g>
</g>
</svg>
