<svg width="24" height="24" viewBox="0 0 24 24" fill="none" xmlns="http://www.w3.org/2000/svg">
<path d="M20.34 6.13995C20.03 5.67995 19.67 5.24995 19.28 4.85995C18.89 4.46995 18.46 4.10995 18 3.79995C17.54 3.48995 17.05 3.21995 16.53 2.99995C16.01 2.77995 15.47 2.60995 14.9 2.49995C14.34 2.37995 13.75 2.31995 13.15 2.31995H10.83C6.04 2.31995 2.16 6.19995 2.16 10.9899C2.16 15.7799 6.04 19.6599 10.83 19.6599H11.99V20.2099C11.99 21.1599 12.86 21.8599 13.79 21.6899C18.34 20.8399 21.81 16.8199 21.81 12.0299V10.9999C21.81 9.20995 21.26 7.53995 20.33 6.14995L20.34 6.13995ZM5.98 12.2799C4.88 12.2799 3.98 11.3799 3.98 10.2799C3.98 9.17995 4.88 8.27995 5.98 8.27995C7.08 8.27995 7.98 9.17995 7.98 10.2799C7.98 11.3799 7.08 12.2799 5.98 12.2799ZM9.48 8.27995C8.38 8.27995 7.48 7.37995 7.48 6.27995C7.48 5.17995 8.38 4.27995 9.48 4.27995C10.58 4.27995 11.48 5.17995 11.48 6.27995C11.48 7.37995 10.58 8.27995 9.48 8.27995ZM14.5 8.27995C13.4 8.27995 12.5 7.37995 12.5 6.27995C12.5 5.17995 13.4 4.27995 14.5 4.27995C15.6 4.27995 16.5 5.17995 16.5 6.27995C16.5 7.37995 15.6 8.27995 14.5 8.27995ZM18 12.2799C16.9 12.2799 16 11.3799 16 10.2799C16 9.17995 16.9 8.27995 18 8.27995C19.1 8.27995 20 9.17995 20 10.2799C20 11.3799 19.1 12.2799 18 12.2799Z" fill="#C2C2F3"/>
<path d="M5.98001 12.2799C7.08458 12.2799 7.98001 11.3845 7.98001 10.2799C7.98001 9.17534 7.08458 8.27991 5.98001 8.27991C4.87544 8.27991 3.98001 9.17534 3.98001 10.2799C3.98001 11.3845 4.87544 12.2799 5.98001 12.2799Z" fill="#8484E6"/>
<path d="M9.48001 8.27991C10.5846 8.27991 11.48 7.38448 11.48 6.27991C11.48 5.17534 10.5846 4.27991 9.48001 4.27991C8.37544 4.27991 7.48001 5.17534 7.48001 6.27991C7.48001 7.38448 8.37544 8.27991 9.48001 8.27991Z" fill="#6B6BE1"/>
<path d="M14.5 8.27991C15.6046 8.27991 16.5 7.38448 16.5 6.27991C16.5 5.17534 15.6046 4.27991 14.5 4.27991C13.3954 4.27991 12.5 5.17534 12.5 6.27991C12.5 7.38448 13.3954 8.27991 14.5 8.27991Z" fill="#4B4B9E"/>
<path d="M18 12.2799C19.1046 12.2799 20 11.3845 20 10.2799C20 9.17534 19.1046 8.27991 18 8.27991C16.8954 8.27991 16 9.17534 16 10.2799C16 11.3845 16.8954 12.2799 18 12.2799Z" fill="#414189"/>
</svg>
