<svg width="30" height="30" viewBox="0 0 30 30" fill="none" xmlns="http://www.w3.org/2000/svg">
<g filter="url(#filter0_d_2787_31926)">
<path d="M25.5375 12.6388C25.5375 6.64719 20.5371 1.82319 14.4813 2.11299C9.19466 2.36559 4.82366 6.65919 4.48346 11.941C4.21946 16.0378 6.29966 19.6684 9.51146 21.631C10.5897 22.2898 12.0015 21.6808 12.3231 20.4592L12.3627 20.3092H12.3669C12.6075 19.03 13.7265 18.061 15.0753 18.061C16.4241 18.061 17.5431 19.03 17.7837 20.3092H17.7879C18.0747 21.5812 19.5393 22.2322 20.6403 21.5332C23.5827 19.6654 25.5375 16.3822 25.5375 12.6388Z" fill="#DFDFFA"/>
<path d="M14.9985 7.44722C15.9254 7.44722 16.6767 6.69586 16.6767 5.76902C16.6767 4.84218 15.9254 4.09082 14.9985 4.09082C14.0717 4.09082 13.3203 4.84218 13.3203 5.76902C13.3203 6.69586 14.0717 7.44722 14.9985 7.44722Z" fill="#C2C2F3"/>
<path d="M10.2993 9.39253C11.2261 9.39253 11.9775 8.64118 11.9775 7.71433C11.9775 6.78749 11.2261 6.03613 10.2993 6.03613C9.37245 6.03613 8.62109 6.78749 8.62109 7.71433C8.62109 8.64118 9.37245 9.39253 10.2993 9.39253Z" fill="#8484E6"/>
<path d="M8.35398 14.0908C9.28083 14.0908 10.0322 13.3394 10.0322 12.4126C10.0322 11.4857 9.28083 10.7344 8.35398 10.7344C7.42714 10.7344 6.67578 11.4857 6.67578 12.4126C6.67578 13.3394 7.42714 14.0908 8.35398 14.0908Z" fill="#6B6BE1"/>
<path d="M19.6938 9.39351C20.6207 9.39351 21.372 8.64215 21.372 7.71531C21.372 6.78847 20.6207 6.03711 19.6938 6.03711C18.767 6.03711 18.0156 6.78847 18.0156 7.71531C18.0156 8.64215 18.767 9.39351 19.6938 9.39351Z" fill="#8484E6"/>
<path d="M21.6391 14.0908C22.566 14.0908 23.3173 13.3394 23.3173 12.4126C23.3173 11.4857 22.566 10.7344 21.6391 10.7344C20.7123 10.7344 19.9609 11.4857 19.9609 12.4126C19.9609 13.3394 20.7123 14.0908 21.6391 14.0908Z" fill="#6B6BE1"/>
</g>
<defs>
<filter id="filter0_d_2787_31926" x="-1" y="0" width="32" height="32" filterUnits="userSpaceOnUse" color-interpolation-filters="sRGB">
<feFlood flood-opacity="0" result="BackgroundImageFix"/>
<feColorMatrix in="SourceAlpha" type="matrix" values="0 0 0 0 0 0 0 0 0 0 0 0 0 0 0 0 0 0 127 0" result="hardAlpha"/>
<feOffset dy="4"/>
<feGaussianBlur stdDeviation="2"/>
<feComposite in2="hardAlpha" operator="out"/>
<feColorMatrix type="matrix" values="0 0 0 0 0 0 0 0 0 0 0 0 0 0 0 0 0 0 0.25 0"/>
<feBlend mode="normal" in2="BackgroundImageFix" result="effect1_dropShadow_2787_31926"/>
<feBlend mode="normal" in="SourceGraphic" in2="effect1_dropShadow_2787_31926" result="shape"/>
</filter>
</defs>
</svg>
