<svg width="28" height="28" viewBox="0 0 28 28" fill="none" xmlns="http://www.w3.org/2000/svg">
<g filter="url(#filter0_d_2299_22708)">
<path d="M13.8932 4.24437C16.9177 4.24437 19.4407 5.48837 20.0212 7.14087C20.4457 6.66437 20.6917 6.13687 20.6917 5.58337C20.6917 3.58737 17.5783 1.90137 13.8928 1.90137C10.2073 1.90137 7.09375 3.58737 7.09375 5.58337C7.09375 6.13687 7.33975 6.66437 7.76425 7.14087C8.34475 5.48837 10.8677 4.24437 13.8922 4.24437H13.8932Z" fill="#DFDFFA"/>
<path d="M13.8963 15.553C12.0358 15.553 10.3403 14.862 9.03931 13.7295C9.01981 13.8325 9.00781 13.937 9.00781 14.043C9.00781 15.607 11.1968 16.875 13.8968 16.875C16.5968 16.875 18.7858 15.607 18.7858 14.043C18.7858 13.937 18.7738 13.8325 18.7543 13.7295C17.4533 14.8625 15.7578 15.553 13.8973 15.553H13.8963Z" fill="#A9A9EE"/>
<path d="M13.8936 4.24414C10.8691 4.24414 8.34613 5.48814 7.76562 7.14064C8.87213 8.38264 11.2301 9.26564 13.8936 9.26564C16.5571 9.26564 18.9151 8.38264 20.0216 7.14064C19.4411 5.48814 16.9181 4.24414 13.8936 4.24414Z" fill="#6B6BE1"/>
<path d="M9.03097 13.727C10.332 14.86 12.0275 15.5505 13.888 15.5505C15.7485 15.5505 17.444 14.8595 18.745 13.727C19.714 12.8835 20.4595 11.7935 20.8865 10.5525C21.147 9.7965 21.295 8.988 21.295 8.143V5.6875C21.295 5.6875 21.289 5.703 21.283 5.7185C21.229 6.7015 20.613 7.602 19.6035 8.3105C19.3015 8.5225 18.965 8.717 18.5995 8.892C17.319 9.504 15.6775 9.8715 13.888 9.8715C12.0985 9.8715 10.4565 9.504 9.17597 8.892C8.80997 8.717 8.47397 8.522 8.17197 8.3105C7.16247 7.602 6.54647 6.7015 6.49247 5.7185C6.48647 5.703 6.48047 5.6875 6.48047 5.6875V8.143C6.48047 8.9875 6.62847 9.796 6.88897 10.5525C7.31597 11.793 8.06147 12.883 9.03047 13.727H9.03097Z" fill="#DFDFFA"/>
<path d="M20.8952 10.5537C20.4682 11.7942 19.7227 12.8842 18.7537 13.7282C18.7732 13.8312 18.7852 13.9357 18.7852 14.0417C18.7852 15.6057 16.5962 16.8737 13.8962 16.8737C11.1962 16.8737 9.00725 15.6057 9.00725 14.0417C9.00725 13.9357 9.01925 13.8312 9.03875 13.7282C8.06975 12.8847 7.32425 11.7947 6.89725 10.5537C5.50375 11.4907 4.65625 12.7077 4.65625 14.0417C4.65625 16.9977 8.79325 19.3937 13.8962 19.3937C18.9992 19.3937 23.1362 16.9977 23.1362 14.0417C23.1362 12.7077 22.2887 11.4907 20.8952 10.5537Z" fill="#C2C2F3"/>
<path d="M20.9722 4.30602C20.8272 4.04102 20.6372 3.78102 20.4122 3.53602C19.9572 3.05102 19.3422 2.62102 18.6072 2.27102C17.3272 1.66102 15.6872 1.29102 13.8972 1.29102C12.4322 1.29102 11.0672 1.54102 9.91719 1.97102C9.66219 2.06102 9.41719 2.16102 9.18719 2.27102C8.45219 2.62102 7.84219 3.05102 7.38219 3.53602C7.15719 3.78102 6.96719 4.04102 6.82219 4.30602C6.60719 4.71102 6.49219 5.14102 6.49219 5.58102C6.49219 5.63102 6.50219 5.67602 6.50219 5.72102C6.55719 6.70102 7.17219 7.60602 8.18219 8.31102C8.48219 8.52602 8.82219 8.72102 9.18719 8.89602C10.4672 9.50602 12.1072 9.87602 13.8972 9.87602C15.6872 9.87602 17.3272 9.50602 18.6072 8.89602C18.9772 8.72102 19.3122 8.52602 19.6122 8.31102C20.6222 7.60602 21.2372 6.70102 21.2922 5.72102C21.2972 5.67602 21.3072 5.63102 21.3072 5.58102C21.3072 5.14102 21.1872 4.71102 20.9722 4.30602ZM20.0272 7.14102C18.9172 8.38102 16.5622 9.26602 13.8972 9.26602C11.2322 9.26602 8.87719 8.38102 7.76719 7.14102C7.34719 6.66602 7.09719 6.13602 7.09719 5.58102C7.09719 3.58602 10.2122 1.90102 13.8972 1.90102C17.5822 1.90102 20.6972 3.58602 20.6972 5.58102C20.6972 6.13602 20.4522 6.66602 20.0272 7.14102Z" fill="#C2C2F3"/>
</g>
<defs>
<filter id="filter0_d_2299_22708" x="0" y="0" width="28" height="28" filterUnits="userSpaceOnUse" color-interpolation-filters="sRGB">
<feFlood flood-opacity="0" result="BackgroundImageFix"/>
<feColorMatrix in="SourceAlpha" type="matrix" values="0 0 0 0 0 0 0 0 0 0 0 0 0 0 0 0 0 0 127 0" result="hardAlpha"/>
<feOffset dy="4"/>
<feGaussianBlur stdDeviation="2"/>
<feComposite in2="hardAlpha" operator="out"/>
<feColorMatrix type="matrix" values="0 0 0 0 0 0 0 0 0 0 0 0 0 0 0 0 0 0 0.25 0"/>
<feBlend mode="normal" in2="BackgroundImageFix" result="effect1_dropShadow_2299_22708"/>
<feBlend mode="normal" in="SourceGraphic" in2="effect1_dropShadow_2299_22708" result="shape"/>
</filter>
</defs>
</svg>
