<svg width="24" height="24" viewBox="0 0 24 24" fill="none" xmlns="http://www.w3.org/2000/svg">
<path fill-rule="evenodd" clip-rule="evenodd" d="M17.84 8.17017H15.13V6.17017H17.84C20.3823 6.17017 22.46 8.24788 22.46 10.7902C22.46 13.3325 20.3823 15.4102 17.84 15.4102H15.13V13.4102H17.84C19.2777 13.4102 20.46 12.2279 20.46 10.7902C20.46 9.35245 19.2777 8.17017 17.84 8.17017Z" fill="#8484E6"/>
<path fill-rule="evenodd" clip-rule="evenodd" d="M13.29 19.8402H7.05998C4.54998 19.8402 2.55999 17.9202 2.68999 15.6302L3.24999 6.06017C3.30999 5.00017 4.26999 4.17017 5.42999 4.17017H14.91C16.07 4.17017 17.03 5.00017 17.09 6.06017L17.65 15.6302C17.78 17.9202 15.79 19.8402 13.28 19.8402H13.29Z" fill="#8484E6"/>
<path fill-rule="evenodd" clip-rule="evenodd" d="M13.25 19.9201H6.94999C4.41999 19.9201 2.39999 17.9801 2.53999 15.6601L3.10999 5.99008C3.16999 4.92008 4.13999 4.08008 5.31999 4.08008H14.9C16.07 4.08008 17.04 4.92008 17.11 5.99008L17.68 15.6601C17.82 17.9701 15.8 19.9201 13.27 19.9201H13.25Z" fill="#8484E6"/>
<path fill-rule="evenodd" clip-rule="evenodd" d="M2.53 15.6602C2.39 17.9702 4.41 19.9202 6.94 19.9202H13.24C15.77 19.9202 17.79 17.9802 17.65 15.6602L17.6 15.7502H2.57999L2.53 15.6602Z" fill="#A9A9EE"/>
</svg>
