<svg width="14" height="14" viewBox="0 0 14 14" fill="none" xmlns="http://www.w3.org/2000/svg">
<g id="pencil-02">
<g id="Solid">
<path d="M10.9131 0.75435C10.6853 0.526545 10.316 0.526545 10.0882 0.75435C9.86037 0.982156 9.86037 1.3515 10.0882 1.57931L12.4215 3.91264C12.6493 4.14045 13.0187 4.14045 13.2465 3.91264C13.4743 3.68484 13.4743 3.31549 13.2465 3.08768L10.9131 0.75435Z" fill="#0F1114"/>
<path d="M8.48028 2.49709C8.65601 2.43999 8.84532 2.43999 9.02106 2.49709C9.15676 2.54118 9.25511 2.61442 9.3199 2.66942C9.37581 2.71689 9.43447 2.77559 9.48358 2.82473L11.176 4.5172C11.2252 4.56631 11.2839 4.62497 11.3314 4.68088C11.3864 4.74568 11.4596 4.84403 11.5037 4.97973C11.5608 5.15547 11.5608 5.34477 11.5037 5.52051C11.4596 5.65621 11.3864 5.75456 11.3314 5.81936C11.2839 5.87528 11.2252 5.93394 11.176 5.98306L5.11666 12.0424C5.00776 12.1515 4.91166 12.2477 4.8003 12.3288C4.70231 12.4002 4.59716 12.4612 4.48656 12.5109C4.36086 12.5673 4.22964 12.603 4.08094 12.6435L1.32082 13.3962C1.11886 13.4513 0.902873 13.394 0.754852 13.2459C0.606831 13.0979 0.549473 12.8819 0.604552 12.68L1.3573 9.91984C1.39776 9.77115 1.43346 9.63992 1.48989 9.51423C1.53955 9.40362 1.60057 9.29848 1.67196 9.20048C1.7531 9.08913 1.84932 8.99302 1.95835 8.88412L8.01774 2.82475C8.06685 2.7756 8.12551 2.71689 8.18143 2.66942C8.24622 2.61442 8.34457 2.54118 8.48028 2.49709Z" fill="#0F1114"/>
</g>
</g>
</svg>
