<svg width="24" height="24" viewBox="0 0 24 24" fill="none" xmlns="http://www.w3.org/2000/svg">
<path d="M12 22C17.5228 22 22 17.5228 22 12C22 6.47715 17.5228 2 12 2C6.47715 2 2 6.47715 2 12C2 17.5228 6.47715 22 12 22Z" fill="#C2C2F3"/>
<path d="M6.84 8.59003H9.84C10.67 8.59003 11.34 9.26003 11.34 10.09C11.34 11.47 10.22 12.59 8.84 12.59H7.84C6.46 12.59 5.34 11.47 5.34 10.09C5.34 9.26003 6.01 8.59003 6.84 8.59003Z" fill="#414189"/>
<path d="M14.16 8.59003H17.16C17.99 8.59003 18.66 9.26003 18.66 10.09C18.66 11.47 17.54 12.59 16.16 12.59H15.16C13.78 12.59 12.66 11.47 12.66 10.09C12.66 9.26003 13.33 8.59003 14.16 8.59003Z" fill="#414189"/>
<path fill-rule="evenodd" clip-rule="evenodd" d="M13.26 10.84H10.77V9.34003H13.26V10.84Z" fill="#414189"/>
<path fill-rule="evenodd" clip-rule="evenodd" d="M15.7759 14.8322C16.2387 15.1337 16.3693 15.7532 16.0678 16.2159C15.3767 17.2765 14.4445 17.6602 13.6698 17.7409C13.2992 17.7794 12.9775 17.7485 12.7476 17.7084C12.6315 17.6881 12.5353 17.6649 12.4636 17.6451C12.4277 17.6353 12.3976 17.6262 12.3739 17.6186C12.362 17.6148 12.3517 17.6114 12.3431 17.6085L12.3314 17.6044L12.3264 17.6027L12.3242 17.6019L12.3232 17.6015C12.3226 17.6014 12.3221 17.6012 12.658 16.6655L12.3221 17.6012C11.8023 17.4146 11.5322 16.8419 11.7188 16.3221C11.9037 15.8071 12.4676 15.5372 12.9835 15.7137C12.9835 15.7137 12.9835 15.7137 12.9835 15.7137C12.9855 15.7144 12.9892 15.7154 12.9944 15.7169C13.012 15.7217 13.0455 15.7301 13.0915 15.7382C13.1856 15.7546 13.3171 15.7668 13.4627 15.7516C13.7205 15.7248 14.0733 15.6135 14.3922 15.124C14.6937 14.6613 15.3132 14.5306 15.7759 14.8322Z" fill="#6B6BE1"/>
</svg>
