<svg width="30" height="31" viewBox="0 0 30 31" fill="none" xmlns="http://www.w3.org/2000/svg">
<g filter="url(#filter0_d_2794_22927)">
<path d="M15 22.5C20.799 22.5 25.5 17.799 25.5 12C25.5 6.20101 20.799 1.5 15 1.5C9.20101 1.5 4.5 6.20101 4.5 12C4.5 17.799 9.20101 22.5 15 22.5Z" fill="#C2C2F3"/>
<path d="M7.90741 15.8265C9.06223 15.8265 9.99841 14.8904 9.99841 13.7355C9.99841 12.5807 9.06223 11.6445 7.90741 11.6445C6.75258 11.6445 5.81641 12.5807 5.81641 13.7355C5.81641 14.8904 6.75258 15.8265 7.90741 15.8265Z" fill="#8484E6"/>
<path d="M22.091 15.8265C23.2458 15.8265 24.182 14.8904 24.182 13.7355C24.182 12.5807 23.2458 11.6445 22.091 11.6445C20.9362 11.6445 20 12.5807 20 13.7355C20 14.8904 20.9362 15.8265 22.091 15.8265Z" fill="#8484E6"/>
<path d="M17.5337 12.7795C18.2276 12.7795 18.7901 12.0466 18.7901 11.1427C18.7901 10.2387 18.2276 9.50586 17.5337 9.50586C16.8399 9.50586 16.2773 10.2387 16.2773 11.1427C16.2773 12.0466 16.8399 12.7795 17.5337 12.7795Z" fill="#414189"/>
<path d="M10.554 11.3287C10.338 11.2387 10.1124 11.4391 10.1862 11.6611C10.4202 12.3619 11.0652 12.8653 11.8248 12.8653C12.5838 12.8653 13.2294 12.3619 13.4634 11.6611C13.5378 11.4391 13.3122 11.2387 13.0956 11.3287C12.7974 11.4529 12.3642 11.5771 11.8248 11.5771C11.2854 11.5771 10.8522 11.4529 10.554 11.3287Z" fill="#414189"/>
<path d="M10.887 8.9741C11.571 8.6549 11.8926 8.3141 12.1602 8.0099C12.3144 7.8347 12.5328 7.9151 12.531 8.1647C12.5268 8.7041 12.1938 9.4367 11.2974 9.8549C10.401 10.2725 9.62583 10.0571 9.21003 9.7133C9.01743 9.5543 9.09603 9.3347 9.33003 9.3293C9.73503 9.3203 10.203 9.2927 10.887 8.9741Z" fill="#414189"/>
<path d="M18.0612 5.99769C17.3862 5.81709 16.9548 5.86749 16.5846 5.92389C16.371 5.95689 16.2636 5.76909 16.4136 5.59329C16.7376 5.21349 17.4102 4.89189 18.294 5.12889C19.1784 5.36589 19.6002 5.98089 19.6902 6.47169C19.7322 6.69909 19.5456 6.80769 19.377 6.67269C19.0842 6.43809 18.7362 6.17829 18.0612 5.99769Z" fill="#414189"/>
<path d="M15.0122 16.3728C13.8176 16.5834 12.8492 16.5414 12.1766 16.4454C11.8274 16.3956 11.627 16.8354 11.8898 17.07C12.5924 17.697 13.757 18.3858 15.3182 18.1104C16.88 17.835 17.7386 16.7898 18.1844 15.96C18.3512 15.6498 18.0122 15.3048 17.7014 15.471C17.102 15.7914 16.2062 16.1622 15.0122 16.3728Z" fill="#8484E6"/>
</g>
<defs>
<filter id="filter0_d_2794_22927" x="-1" y="0" width="32" height="32" filterUnits="userSpaceOnUse" color-interpolation-filters="sRGB">
<feFlood flood-opacity="0" result="BackgroundImageFix"/>
<feColorMatrix in="SourceAlpha" type="matrix" values="0 0 0 0 0 0 0 0 0 0 0 0 0 0 0 0 0 0 127 0" result="hardAlpha"/>
<feOffset dy="4"/>
<feGaussianBlur stdDeviation="2"/>
<feComposite in2="hardAlpha" operator="out"/>
<feColorMatrix type="matrix" values="0 0 0 0 0 0 0 0 0 0 0 0 0 0 0 0 0 0 0.25 0"/>
<feBlend mode="normal" in2="BackgroundImageFix" result="effect1_dropShadow_2794_22927"/>
<feBlend mode="normal" in="SourceGraphic" in2="effect1_dropShadow_2794_22927" result="shape"/>
</filter>
</defs>
</svg>
