<svg width="20" height="21" viewBox="0 0 20 21" fill="none" xmlns="http://www.w3.org/2000/svg">
<path d="M10.0013 15.1455C10.2374 15.1455 10.4353 15.0656 10.5951 14.9059C10.7548 14.7462 10.8346 14.5483 10.8346 14.3122C10.8346 14.0761 10.7548 13.8781 10.5951 13.7184C10.4353 13.5587 10.2374 13.4788 10.0013 13.4788C9.76519 13.4788 9.56727 13.5587 9.40755 13.7184C9.24783 13.8781 9.16797 14.0761 9.16797 14.3122C9.16797 14.5483 9.24783 14.7462 9.40755 14.9059C9.56727 15.0656 9.76519 15.1455 10.0013 15.1455ZM9.16797 10.9788C9.16797 11.4391 9.54106 11.8122 10.0013 11.8122C10.4615 11.8122 10.8346 11.4391 10.8346 10.9788V7.64551C10.8346 7.18527 10.4615 6.81217 10.0013 6.81217C9.54106 6.81217 9.16797 7.18527 9.16797 7.64551V10.9788ZM10.0013 19.3122C8.84852 19.3122 7.76519 19.0934 6.7513 18.6559C5.73741 18.2184 4.85547 17.6247 4.10547 16.8747C3.35547 16.1247 2.76172 15.2427 2.32422 14.2288C1.88672 13.215 1.66797 12.1316 1.66797 10.9788C1.66797 9.82606 1.88672 8.74273 2.32422 7.72884C2.76172 6.71495 3.35547 5.83301 4.10547 5.08301C4.85547 4.33301 5.73741 3.73926 6.7513 3.30176C7.76519 2.86426 8.84852 2.64551 10.0013 2.64551C11.1541 2.64551 12.2374 2.86426 13.2513 3.30176C14.2652 3.73926 15.1471 4.33301 15.8971 5.08301C16.6471 5.83301 17.2409 6.71495 17.6784 7.72884C18.1159 8.74273 18.3346 9.82606 18.3346 10.9788C18.3346 12.1316 18.1159 13.215 17.6784 14.2288C17.2409 15.2427 16.6471 16.1247 15.8971 16.8747C15.1471 17.6247 14.2652 18.2184 13.2513 18.6559C12.2374 19.0934 11.1541 19.3122 10.0013 19.3122Z" fill="#E9838F"/>
</svg>
