<svg width="30" height="30" viewBox="0 0 30 30" fill="none" xmlns="http://www.w3.org/2000/svg">
<g filter="url(#filter0_d_2794_22895)">
<path d="M11.3596 5.10973C10.0702 3.88693 8.96381 2.54533 8.96381 2.54533V2.55013C8.89841 2.42893 8.77361 2.34433 8.62661 2.34673C8.41601 2.34973 8.248 2.52253 8.25101 2.73313L8.37221 11.6611C7.79681 11.1265 6.96821 10.8619 6.09041 11.0785C5.19041 11.3005 4.47881 12.0481 4.29941 12.9571C3.98561 14.5459 5.21021 15.9319 6.73721 15.9109C7.10621 15.9061 7.45541 15.8191 7.76801 15.6685C8.60081 15.2665 9.1714 14.4079 9.1582 13.4239L9.04841 5.29813C11.5384 5.74153 11.7262 7.92433 11.6026 9.23413C11.5774 9.49873 11.9428 9.60433 12.0604 9.36613C12.7456 7.97593 12.4288 6.12373 11.3602 5.11033L11.3596 5.10973Z" fill="#6B6BE1"/>
<path d="M17.3205 10.4135C16.0479 9.17328 14.9595 7.81668 14.9595 7.81668V7.82148C14.8959 7.69968 14.7723 7.61328 14.6253 7.61328C14.4147 7.61328 14.2443 7.78368 14.2443 7.99428V16.9235C13.6761 16.3811 12.8511 16.1057 11.9703 16.3103C11.0673 16.5203 10.3455 17.2577 10.1541 18.1643C9.81868 19.7489 11.0247 21.1511 12.5517 21.1511C12.9207 21.1511 13.2711 21.0695 13.5855 20.9225C14.4237 20.5319 15.0063 19.6811 15.0063 18.6965V10.5701C17.4897 11.0471 17.6481 13.2323 17.5071 14.5403C17.4783 14.8043 17.8425 14.9153 17.9631 14.6783C18.6669 13.2971 18.3753 11.4407 17.3205 10.4135Z" fill="#6B6BE1"/>
<path d="M24.9025 8.49942C23.6299 7.25922 22.5415 5.90262 22.5415 5.90262V5.90742C22.4779 5.78562 22.3543 5.69922 22.2073 5.69922C21.9967 5.69922 21.8263 5.86962 21.8263 6.08022V15.0094C21.2581 14.467 20.4331 14.1916 19.5523 14.3962C18.6493 14.6062 17.9275 15.3436 17.7361 16.2502C17.4007 17.8348 18.6067 19.237 20.1337 19.237C20.5027 19.237 20.8531 19.1554 21.1675 19.0084C22.0057 18.6178 22.5883 17.767 22.5877 16.7824V8.65602C25.0711 9.13302 25.2295 11.3182 25.0885 12.6262C25.0597 12.8902 25.4239 13.0012 25.5445 12.7642C26.2483 11.383 25.9573 9.52662 24.9025 8.49942Z" fill="#6B6BE1"/>
</g>
<defs>
<filter id="filter0_d_2794_22895" x="-1" y="0" width="32" height="32" filterUnits="userSpaceOnUse" color-interpolation-filters="sRGB">
<feFlood flood-opacity="0" result="BackgroundImageFix"/>
<feColorMatrix in="SourceAlpha" type="matrix" values="0 0 0 0 0 0 0 0 0 0 0 0 0 0 0 0 0 0 127 0" result="hardAlpha"/>
<feOffset dy="4"/>
<feGaussianBlur stdDeviation="2"/>
<feComposite in2="hardAlpha" operator="out"/>
<feColorMatrix type="matrix" values="0 0 0 0 0 0 0 0 0 0 0 0 0 0 0 0 0 0 0.25 0"/>
<feBlend mode="normal" in2="BackgroundImageFix" result="effect1_dropShadow_2794_22895"/>
<feBlend mode="normal" in="SourceGraphic" in2="effect1_dropShadow_2794_22895" result="shape"/>
</filter>
</defs>
</svg>
