<svg width="24" height="24" viewBox="0 0 24 24" fill="none" xmlns="http://www.w3.org/2000/svg">
<path fill-rule="evenodd" clip-rule="evenodd" d="M8.37999 10.5C8.37999 10.5 8.37999 10.5 8.37999 10.49C8.37999 10.48 8.37999 10.49 8.37999 10.48V6.25L11.52 6.73C12.26 6.84 12.92 6.31 12.92 5.6V4.48C12.92 3.92 12.49 3.44 11.9 3.35L8.26999 2.79C7.52999 2.68 6.87 3.21 6.87 3.92V5.04C6.87 5.04 6.87 5.04 6.87 5.06V8.2C6.56 8.07 6.23 7.99 5.87 7.99C4.49 7.99 3.37 9.11 3.37 10.49C3.37 11.87 4.49 12.99 5.87 12.99C7.25 12.99 8.35999 11.88 8.37 10.5H8.37999Z" fill="#A9A9EE"/>
<path fill-rule="evenodd" clip-rule="evenodd" d="M20.61 9.67002C20.61 9.67002 20.61 9.62002 20.61 9.60002V8.19003C20.61 7.30003 19.59 6.62002 18.46 6.76002L12.89 7.46002C11.99 7.57002 11.33 8.18002 11.33 8.89002V10.3V10.32V15.65C10.89 15.39 10.38 15.23 9.82999 15.23C8.16999 15.23 6.82999 16.57 6.82999 18.23C6.82999 19.89 8.16999 21.23 9.82999 21.23C11.49 21.23 12.83 19.89 12.83 18.23V11.71C13.04 11.74 13.26 11.75 13.48 11.73L19.05 11.03C19.05 11.03 19.08 11.03 19.1 11.02V13.81C18.66 13.56 18.15 13.4 17.61 13.4C15.95 13.4 14.61 14.74 14.61 16.4C14.61 18.06 15.95 19.4 17.61 19.4C19.27 19.4 20.61 18.06 20.61 16.4C20.61 16.35 20.6 16.29 20.59 16.24V9.68002L20.61 9.67002Z" fill="#6B6BE1"/>
</svg>
