<svg width="32" height="32" viewBox="0 0 32 32" fill="none" xmlns="http://www.w3.org/2000/svg">
<g filter="url(#filter0_d_4820_24722)">
<path d="M18.87 15.32H17.51C15.18 15.32 13.18 16.74 12.33 18.75L12.55 13H12.58C12.9 13.53 13.53 13.84 14.18 13.74L14.58 13.68C15.45 13.55 16.05 12.73 15.92 11.86C15.92 11.8 15.89 11.74 15.88 11.69C16.9 10.96 17.38 9.62 16.94 8.37C16.41 6.86 14.75 6.07 13.24 6.6L10.4 7.61C9.77 7.83 9.28 8.26 8.94 8.78C8.67 9.11 8.47 9.51 8.36 9.97L6.43 16.21C6.12 17.22 5.94 18.29 6.05 19.35C6.37 22.35 8.41 24.88 11.21 25.4L12.09 25.56V25.45C12.17 25.51 12.27 25.56 12.38 25.56H18.88C21.71 25.56 24 23.27 24 20.44C24 17.61 21.71 15.32 18.88 15.32H18.87Z" fill="#C2C2F3"/>
<path d="M16.87 24.23C16.09 24.23 15.4 24.05 14.92 23.84C14.54 23.67 14.37 23.23 14.54 22.85C14.71 22.47 15.15 22.31 15.53 22.47C15.81 22.59 18.3 23.56 20 20.84C20.22 20.49 20.68 20.38 21.03 20.6C21.38 20.82 21.49 21.28 21.27 21.63C20.01 23.64 18.29 24.23 16.87 24.23Z" fill="#8484E6"/>
</g>
<defs>
<filter id="filter0_d_4820_24722" x="0" y="0" width="32" height="32" filterUnits="userSpaceOnUse" color-interpolation-filters="sRGB">
<feFlood flood-opacity="0" result="BackgroundImageFix"/>
<feColorMatrix in="SourceAlpha" type="matrix" values="0 0 0 0 0 0 0 0 0 0 0 0 0 0 0 0 0 0 127 0" result="hardAlpha"/>
<feOffset dx="1"/>
<feGaussianBlur stdDeviation="2"/>
<feComposite in2="hardAlpha" operator="out"/>
<feColorMatrix type="matrix" values="0 0 0 0 0 0 0 0 0 0 0 0 0 0 0 0 0 0 0.1 0"/>
<feBlend mode="normal" in2="BackgroundImageFix" result="effect1_dropShadow_4820_24722"/>
<feBlend mode="normal" in="SourceGraphic" in2="effect1_dropShadow_4820_24722" result="shape"/>
</filter>
</defs>
</svg>
