<svg width="30" height="32" viewBox="0 0 30 32" fill="none" xmlns="http://www.w3.org/2000/svg">
<g filter="url(#filter0_d_2787_13349)">
<path d="M20.5862 2.08784L18.7862 3.17984C18.6122 2.74184 18.1622 2.52584 17.7422 2.70584C17.2922 2.89784 17.0402 3.46184 17.1902 3.96584C17.2502 4.18184 17.3762 4.34384 17.5322 4.45784L16.7162 5.45384L16.7102 5.45984C16.7042 5.45384 16.6982 5.44784 16.6982 5.44784C16.6082 5.36984 16.5242 5.29184 16.4462 5.20784C16.4342 5.19584 16.4222 5.17784 16.4042 5.15984C16.3142 5.05784 16.2362 4.94384 16.1582 4.82984C16.1402 4.79984 16.1222 4.76384 16.0982 4.73384C16.0262 4.60184 15.9602 4.46384 15.9122 4.32584C15.9002 4.28984 15.8882 4.25984 15.8822 4.22384C15.8462 4.10984 15.8162 3.99584 15.7982 3.87584C15.7862 3.83384 15.7802 3.79184 15.7742 3.74984C15.7562 3.61184 15.7502 3.46784 15.7562 3.31784C15.7622 3.28784 15.7622 3.25784 15.7682 3.22784C15.7742 3.15584 15.7742 3.07784 15.7922 3.00584C15.7982 2.96984 15.8102 2.93984 15.8162 2.90984C15.8342 2.81384 15.8642 2.72384 15.8942 2.63384C15.9182 2.56184 15.9362 2.49584 15.9662 2.42384C16.0082 2.33384 16.0562 2.24384 16.1042 2.15984C16.1342 2.09984 16.1642 2.04584 16.2002 1.99184C16.2662 1.90184 16.3382 1.81184 16.4102 1.72784C16.4462 1.68584 16.4762 1.64984 16.5182 1.61384C16.5962 1.52984 16.6862 1.45184 16.7762 1.38584C16.8242 1.34984 16.8662 1.31984 16.9082 1.28384C16.9502 1.25984 16.9862 1.22384 17.0282 1.19984C17.0822 1.16984 17.1422 1.14584 17.2022 1.11584C17.2562 1.09184 17.3102 1.06784 17.3702 1.04384C17.4662 1.00184 17.5682 0.965844 17.6702 0.935844C17.7302 0.917844 17.7962 0.905844 17.8622 0.887844C17.9582 0.869844 18.0542 0.857844 18.1562 0.851844C18.2282 0.845844 18.3062 0.839844 18.3782 0.839844C18.4742 0.839844 18.5702 0.851844 18.6602 0.857844C18.7082 0.863844 18.7502 0.863844 18.7982 0.869844C18.8282 0.875844 18.8582 0.887844 18.8882 0.893844C18.9962 0.917844 19.0982 0.947844 19.1942 0.983844C19.2662 1.00784 19.3322 1.02584 19.3982 1.05584C19.5002 1.09784 19.5962 1.15784 19.6922 1.21184C19.7462 1.24784 19.8062 1.27184 19.8542 1.30784C19.9562 1.37984 20.0462 1.46384 20.1362 1.54784C20.1782 1.58384 20.2262 1.61984 20.2622 1.66184C20.3522 1.75784 20.4302 1.86584 20.5022 1.97384C20.5322 2.01584 20.5622 2.04584 20.5862 2.08784Z" fill="#8484E6"/>
<path d="M13.3477 13.1289L11.3383 15.4815L11.2812 15.5481L13.0284 17.7423L13.0417 17.7591L14.8231 16.6071C15.2257 16.3467 15.7309 16.2993 16.1749 16.4799L18.3384 17.4369L19.8403 15.0399L17.5464 13.3023L13.3477 13.1289Z" fill="#6B6BE1"/>
<path d="M16.5199 8.11515C16.2079 7.49655 16.4569 6.74295 17.0749 6.43095C17.4559 6.23835 17.8879 6.26055 18.2365 6.44955C18.1705 6.37755 18.1021 6.30735 18.0211 6.24495C17.8195 6.09135 17.5693 5.97375 17.2621 5.91915C16.9423 5.86215 16.6813 5.85075 16.4539 5.86995C15.9727 5.91015 15.6583 6.10095 15.3721 6.37755C15.3259 6.42195 15.2803 6.46695 15.2347 6.51555C14.8537 6.92175 14.6113 7.43835 14.4907 7.98255L14.2603 9.02115L13.3477 13.1299L17.5465 13.3033C17.5465 13.3033 17.7733 12.2719 18.0283 11.1043L16.5211 8.11575L16.5199 8.11515Z" fill="#6B6BE1"/>
<path d="M11.3387 15.4817L11.2313 15.5819C11.1197 15.6863 10.9487 15.6893 10.8335 15.5897L9.63234 14.5469L7.67874 16.5575L7.65234 16.5635L8.98434 17.7203C9.57354 18.2321 10.3013 18.4865 11.0285 18.4865C11.7419 18.4865 12.4493 18.2309 13.0289 17.7425L11.2817 15.5483L11.3387 15.4817Z" fill="#C2C2F3"/>
<path d="M20.5991 2.10589C20.5991 2.09989 20.5931 2.09389 20.5871 2.08789L18.7871 3.17989C18.6131 2.74189 18.1631 2.52589 17.7431 2.70589C17.2931 2.89789 17.0411 3.46189 17.1911 3.96589C17.2511 4.18189 17.3771 4.34389 17.5331 4.45789L16.7171 5.45389L16.7111 5.45989C16.7051 5.45389 16.6991 5.44789 16.6991 5.44789L16.4531 5.86789C16.6811 5.84989 16.9451 5.86189 17.2631 5.91589C17.5691 5.97589 17.8211 6.08989 18.0251 6.24589L18.1451 6.03589C18.6671 6.07789 19.2131 5.96989 19.6991 5.68189C20.9351 4.94389 21.3371 3.34189 20.5991 2.10589ZM20.4431 3.79189C20.4071 4.01389 20.2751 4.17589 20.1491 4.15789C20.0231 4.13389 19.9511 3.93589 19.9871 3.71389C20.0231 3.49789 20.1551 3.32989 20.2811 3.35389C20.4071 3.37789 20.4791 3.56989 20.4431 3.79189Z" fill="#C2C2F3"/>
<path d="M18.56 17.5982C18.767 17.7494 18.8924 17.993 18.8936 18.2504L18.9086 20.3672H21.7298L21.7148 18.2306C21.707 17.0846 21.1496 15.9962 20.2238 15.3206L19.8416 15.041L18.3398 17.438L18.5594 17.5988L18.56 17.5982Z" fill="#C2C2F3"/>
<path d="M15.3729 6.37793C15.3249 6.41993 15.2829 6.46793 15.2349 6.51593C14.8569 6.92393 14.6109 7.43993 14.4909 7.97993L14.2629 9.01793L13.0149 9.15593C12.8529 9.17393 12.7089 9.26393 12.6189 9.39593L12.0069 10.3319C12.1509 10.8119 12.0609 11.3579 11.7189 11.7779C11.1729 12.4499 10.1829 12.5459 9.51692 11.9999C8.84492 11.4539 8.74892 10.4699 9.29492 9.79793C9.36092 9.71993 9.43292 9.64793 9.51092 9.58193C9.53492 9.53393 9.55292 9.49193 9.58292 9.44393L10.5309 8.01593C11.0349 7.25393 11.8389 6.76193 12.7449 6.65993L15.3729 6.37793Z" fill="#C2C2F3"/>
<path d="M25.0128 10.0442C25.0128 10.7402 24.5568 11.3222 23.9328 11.5262L21.7668 12.6962C21.3888 12.9002 20.9748 13.0082 20.5608 13.0082C20.3088 13.0082 20.0568 12.9662 19.8048 12.8942C19.1508 12.6902 18.6108 12.2402 18.2928 11.6282L18.0288 11.1062L16.5168 8.11219C16.2048 7.49419 16.4568 6.74419 17.0748 6.43219C17.4528 6.24019 17.8848 6.25819 18.2388 6.45019C18.4548 6.57019 18.6408 6.75019 18.7608 6.98419L20.5248 10.4882C20.5248 10.4882 20.5308 10.4882 20.5428 10.4942C20.5608 10.5002 20.5728 10.4942 20.5788 10.4882L21.9108 9.76819C22.0368 9.03619 22.6788 8.47819 23.4468 8.47819C24.3108 8.47819 25.0128 9.18019 25.0128 10.0442Z" fill="#C2C2F3"/>
<path d="M18.9023 20.3672V22.799C18.9023 22.94 19.0163 23.054 19.1573 23.054H23.5931C23.7341 23.054 23.8481 22.94 23.8481 22.799V22.4774C23.8481 21.9998 23.6045 21.5552 23.2019 21.2984L21.7439 20.3672H18.9023Z" fill="#6B6BE1"/>
<path d="M9.63308 14.5468L9.65948 14.5192L7.91528 12.8242C7.81448 12.7258 7.65248 12.7282 7.55468 12.8296L4.46288 16.0108C4.36448 16.1116 4.36688 16.2736 4.46828 16.3714L4.69928 16.5958C5.04188 16.9288 5.53028 17.0638 5.99528 16.954L7.65248 16.5634L7.67888 16.5574L9.63248 14.5468H9.63308Z" fill="#6B6BE1"/>
<path d="M20.1463 4.15786C20.2723 4.17946 20.4049 4.01686 20.4427 3.79486C20.4805 3.57286 20.4091 3.37606 20.2831 3.35446C20.1571 3.33286 20.0245 3.49546 19.9867 3.71746C19.9489 3.93946 20.0203 4.13686 20.1463 4.15786Z" fill="#414189"/>
</g>
<defs>
<filter id="filter0_d_2787_13349" x="-1" y="0" width="32" height="32" filterUnits="userSpaceOnUse" color-interpolation-filters="sRGB">
<feFlood flood-opacity="0" result="BackgroundImageFix"/>
<feColorMatrix in="SourceAlpha" type="matrix" values="0 0 0 0 0 0 0 0 0 0 0 0 0 0 0 0 0 0 127 0" result="hardAlpha"/>
<feOffset dy="4"/>
<feGaussianBlur stdDeviation="2"/>
<feComposite in2="hardAlpha" operator="out"/>
<feColorMatrix type="matrix" values="0 0 0 0 0 0 0 0 0 0 0 0 0 0 0 0 0 0 0.25 0"/>
<feBlend mode="normal" in2="BackgroundImageFix" result="effect1_dropShadow_2787_13349"/>
<feBlend mode="normal" in="SourceGraphic" in2="effect1_dropShadow_2787_13349" result="shape"/>
</filter>
</defs>
</svg>
