<svg width="20" height="20" viewBox="0 0 20 20" fill="none" xmlns="http://www.w3.org/2000/svg">
<g id="info-circle" clip-path="url(#clip0_5180_18462)">
<path id="Icon (Stroke)" fill-rule="evenodd" clip-rule="evenodd" d="M10.0002 2.49967C5.85803 2.49967 2.50016 5.85754 2.50016 9.99967C2.50016 14.1418 5.85803 17.4997 10.0002 17.4997C14.1423 17.4997 17.5002 14.1418 17.5002 9.99967C17.5002 5.85754 14.1423 2.49967 10.0002 2.49967ZM0.833496 9.99967C0.833496 4.93706 4.93755 0.833008 10.0002 0.833008C15.0628 0.833008 19.1668 4.93706 19.1668 9.99967C19.1668 15.0623 15.0628 19.1663 10.0002 19.1663C4.93755 19.1663 0.833496 15.0623 0.833496 9.99967ZM9.16683 6.66634C9.16683 6.2061 9.53992 5.83301 10.0002 5.83301H10.0085C10.4687 5.83301 10.8418 6.2061 10.8418 6.66634C10.8418 7.12658 10.4687 7.49967 10.0085 7.49967H10.0002C9.53992 7.49967 9.16683 7.12658 9.16683 6.66634ZM10.0002 9.16634C10.4604 9.16634 10.8335 9.53944 10.8335 9.99967V13.333C10.8335 13.7932 10.4604 14.1663 10.0002 14.1663C9.53992 14.1663 9.16683 13.7932 9.16683 13.333V9.99967C9.16683 9.53944 9.53992 9.16634 10.0002 9.16634Z" fill="#A7B4C7"/>
</g>
<defs>
<clipPath id="clip0_5180_18462">
<rect width="20" height="20" fill="white"/>
</clipPath>
</defs>
</svg>
