<svg width="33" height="33" viewBox="0 0 33 33" fill="none" xmlns="http://www.w3.org/2000/svg">
<g filter="url(#filter0_d_4820_41031)">
<path d="M9.79001 8.08997H20.47C22.13 8.08997 23.47 9.42997 23.47 11.09V20.32H6.79001V11.09C6.79001 9.42997 8.13001 8.08997 9.79001 8.08997Z" fill="#6B6BE1"/>
<path d="M24.1 24.1599H6.15C5.39 24.1599 4.88 23.4199 5.18 22.7599L6.75 20.3199H23.43L25.07 22.7599C25.37 23.4199 24.86 24.1599 24.1 24.1599Z" fill="#A9A9EE"/>
<path d="M19.01 22.45L18.67 21.94C18.48 21.66 18.17 21.5 17.84 21.5H12.42C12.09 21.5 11.77 21.67 11.59 21.94L11.25 22.45C11.13 22.71 11.33 23 11.63 23H18.64C18.94 23 19.14 22.71 19.02 22.45H19.01Z" fill="#DFDFFA"/>
</g>
<defs>
<filter id="filter0_d_4820_41031" x="0" y="0" width="32.25" height="32.25" filterUnits="userSpaceOnUse" color-interpolation-filters="sRGB">
<feFlood flood-opacity="0" result="BackgroundImageFix"/>
<feColorMatrix in="SourceAlpha" type="matrix" values="0 0 0 0 0 0 0 0 0 0 0 0 0 0 0 0 0 0 127 0" result="hardAlpha"/>
<feOffset dx="1"/>
<feGaussianBlur stdDeviation="2"/>
<feComposite in2="hardAlpha" operator="out"/>
<feColorMatrix type="matrix" values="0 0 0 0 0 0 0 0 0 0 0 0 0 0 0 0 0 0 0.1 0"/>
<feBlend mode="normal" in2="BackgroundImageFix" result="effect1_dropShadow_4820_41031"/>
<feBlend mode="normal" in="SourceGraphic" in2="effect1_dropShadow_4820_41031" result="shape"/>
</filter>
</defs>
</svg>
