<svg width="24" height="24" viewBox="0 0 24 24" fill="none" xmlns="http://www.w3.org/2000/svg">
<path d="M9.83002 2H14.18C15.84 2 17.18 3.34 17.18 5V12.36H6.83002V5C6.83002 3.34 8.17002 2 9.83002 2Z" fill="#A9A9EE"/>
<path d="M18 15.8599H6.00001C4.73001 15.8599 3.93001 14.3899 4.56001 13.1999L4.92001 12.5199C5.29001 11.8199 5.98001 11.3799 6.73001 11.3799H17.27C18.02 11.3799 18.71 11.8199 19.08 12.5199L19.44 13.1999C20.06 14.3899 19.26 15.8599 18 15.8599Z" fill="#6B6BE1"/>
<path d="M17.74 14.48C17.74 13.9277 17.2923 13.48 16.74 13.48C16.1877 13.48 15.74 13.9277 15.74 14.48V21C15.74 21.5523 16.1877 22 16.74 22C17.2923 22 17.74 21.5523 17.74 21V14.48Z" fill="#6B6BE1"/>
<path d="M8.46002 14.48C8.46002 13.9277 8.01231 13.48 7.46002 13.48C6.90774 13.48 6.46002 13.9277 6.46002 14.48V21C6.46002 21.5523 6.90774 22 7.46002 22C8.01231 22 8.46002 21.5523 8.46002 21V14.48Z" fill="#6B6BE1"/>
</svg>
