<svg width="24" height="24" viewBox="0 0 24 24" fill="none" xmlns="http://www.w3.org/2000/svg">
<path d="M6.98999 2.01001H14.99C17.75 2.01001 19.99 4.25001 19.99 7.01001V19.01C19.99 20.67 18.65 22.01 16.99 22.01H6.98999C5.32999 22.01 3.98999 20.67 3.98999 19.01V5.01001C3.98999 3.35001 5.32999 2.01001 6.98999 2.01001Z" fill="#C2C2F3"/>
<path d="M13.99 2.01001H14.99C17.75 2.01001 19.99 4.25001 19.99 7.01001V8.01001H16.79C15.24 8.01001 13.99 6.76001 13.99 5.21001V2.01001Z" fill="#8484E6"/>
<path d="M19.7948 10.2245L20.4029 10.8326C21.0747 11.5044 21.0747 12.5933 20.4029 13.2651L13.5511 20.1169L10.5105 17.0764L17.3624 10.2245C18.0341 9.55277 19.1231 9.55277 19.7948 10.2245Z" fill="#6B6BE1"/>
<path fill-rule="evenodd" clip-rule="evenodd" d="M11.27 20.7101L13.53 20.1001L10.52 17.0901L9.90998 19.3501C9.68998 20.1701 10.44 20.9201 11.26 20.7001L11.27 20.7101Z" fill="#DFDFFA"/>
<path fill-rule="evenodd" clip-rule="evenodd" d="M10.24 20.99L11.64 20.62L10.02 19L9.64998 20.4C9.54998 20.76 9.88998 21.1 10.25 21L10.24 20.99Z" fill="#414189"/>
<path d="M19.8103 10.2482L20.3901 10.828C21.0689 11.5068 21.0689 12.6099 20.3901 13.2887L17.3495 10.2482C18.0284 9.56937 19.1314 9.56936 19.8103 10.2482Z" fill="#DFDFFA"/>
</svg>
