<svg width="25" height="25" viewBox="0 0 25 25" fill="none" xmlns="http://www.w3.org/2000/svg">
<path d="M6.79001 4.09009H17.47C19.13 4.09009 20.47 5.43009 20.47 7.09009V16.3201H3.79001V7.09009C3.79001 5.43009 5.13001 4.09009 6.79001 4.09009Z" fill="#6B6BE1"/>
<path d="M21.1 20.1601H3.15C2.39 20.1601 1.88 19.4201 2.18 18.7601L3.75 16.3201H20.43L22.07 18.7601C22.37 19.4201 21.86 20.1601 21.1 20.1601Z" fill="#A9A9EE"/>
<path d="M16.01 18.45L15.67 17.94C15.48 17.66 15.17 17.5 14.84 17.5H9.41999C9.08999 17.5 8.76999 17.67 8.58999 17.94L8.24999 18.45C8.12999 18.71 8.32999 19 8.62999 19H15.64C15.94 19 16.14 18.71 16.02 18.45H16.01Z" fill="#DFDFFA"/>
</svg>
