<svg width="25" height="25" viewBox="0 0 25 25" fill="none" xmlns="http://www.w3.org/2000/svg">
<path d="M12.2501 3.06C16.1101 3.06 19.2401 6.19 19.2401 10.05V17.36H5.26013V10.05C5.26013 6.19 8.39013 3.06 12.2501 3.06Z" fill="#DE3A4D"/>
<path d="M19.6201 17.36H4.62012C3.79169 17.36 3.12012 18.0316 3.12012 18.86V19.69C3.12012 20.5184 3.79169 21.19 4.62012 21.19H19.6201C20.4485 21.19 21.1201 20.5184 21.1201 19.69V18.86C21.1201 18.0316 20.4485 17.36 19.6201 17.36Z" fill="#4B4B9E"/>
<path fill-rule="evenodd" clip-rule="evenodd" d="M8.04893 6.7945C8.7758 5.95375 9.82773 5.26001 10.99 5.26001C11.4043 5.26001 11.74 5.5958 11.74 6.01001C11.74 6.42422 11.4043 6.76001 10.99 6.76001C10.4224 6.76001 9.74928 7.12127 9.18365 7.77552C8.62303 8.42397 8.29004 9.2239 8.29004 9.88001C8.29004 10.2942 7.95425 10.63 7.54004 10.63C7.12583 10.63 6.79004 10.2942 6.79004 9.88001C6.79004 8.77612 7.31705 7.64105 8.04893 6.7945Z" fill="#DD6875"/>
<path d="M12.2501 8.40002C13.8701 8.40002 15.1901 9.72002 15.1901 11.34V17.36H9.31012V11.34C9.31012 9.72002 10.6301 8.40002 12.2501 8.40002Z" fill="#ED98A2"/>
</svg>
