<svg width="24" height="24" viewBox="0 0 24 24" fill="none" xmlns="http://www.w3.org/2000/svg">
<path d="M19.3735 3.63725L20.3635 4.6272C21.4595 5.72322 21.4595 7.49098 20.3635 8.58699L9.19121 19.7593L4.24146 14.8095L15.4137 3.63725C16.5098 2.54123 18.2775 2.54123 19.3735 3.63725Z" fill="#6B6BE1"/>
<path fill-rule="evenodd" clip-rule="evenodd" d="M5.48998 20.72L9.16998 19.73L4.26998 14.83L3.27998 18.51C2.91998 19.85 4.14998 21.07 5.47998 20.71L5.48998 20.72Z" fill="#DFDFFA"/>
<path fill-rule="evenodd" clip-rule="evenodd" d="M3.81999 21.17L6.09999 20.56L3.44999 17.91L2.83999 20.19C2.67999 20.78 3.21999 21.33 3.81999 21.17Z" fill="#8484E6"/>
<path d="M19.4041 3.65052L20.3445 4.59097C21.4476 5.69406 21.4476 7.49011 20.3445 8.59319L15.3948 3.64345C16.4978 2.54036 18.2939 2.54036 19.397 3.64345L19.4041 3.65052Z" fill="#DFDFFA"/>
</svg>
