<svg width="61" height="60" viewBox="0 0 61 60" fill="none" xmlns="http://www.w3.org/2000/svg">
<g clip-path="url(#clip0_3095_187272)">
<path d="M38.9016 48.1914C38.9016 52.8309 35.1411 56.5914 30.5016 56.5914C25.8621 56.5914 22.1016 52.8309 22.1016 48.1914H38.9016Z" fill="#FF9E00"/>
<path d="M25.4375 8.47566C25.4375 5.67816 27.7055 3.41016 30.503 3.41016C33.3005 3.41016 35.5685 5.67816 35.5685 8.47566H25.439H25.4375Z" fill="#FF9E00"/>
<path d="M9.65685 28.2346C9.65685 16.2631 19.7489 6.64962 31.8884 7.43562C42.9674 8.15262 51.3449 17.8471 51.3449 28.9486V38.0671L54.8909 44.2081C55.9123 45.9781 54.6359 48.1906 52.5914 48.1906H8.40885C6.36585 48.1906 5.08785 45.9781 6.10935 44.2081L9.65535 38.0671L9.65685 28.2346Z" fill="#FFC000"/>
</g>
<defs>
<clipPath id="clip0_3095_187272">
<rect width="60" height="60" fill="white" transform="translate(0.5)"/>
</clipPath>
</defs>
</svg>
