<svg width="143" height="80" viewBox="0 0 143 80" fill="none" xmlns="http://www.w3.org/2000/svg">
<rect x="126.376" y="51.1924" width="11.4336" height="11.4336" rx="2.14381" transform="rotate(-45 126.376 51.1924)" fill="#F2F2E9"/>
<rect x="14.2041" y="34.6846" width="10.7367" height="10.7367" rx="1.8317" transform="rotate(-45 14.2041 34.6846)" fill="#CAB5E3"/>
<rect x="116.212" y="22.5127" width="7.37614" height="7.37614" rx="1.38303" transform="rotate(-45 116.212 22.5127)" fill="#CAB5E3"/>
<rect x="129.376" y="9.21582" width="7.37614" height="7.37614" rx="1.38303" transform="rotate(-45 129.376 9.21582)" fill="#D8F1EB"/>
<rect x="0.454102" y="60.2549" width="8.00257" height="8.00257" rx="1.36526" transform="rotate(-45 0.454102 60.2549)" fill="#D8F1EB"/>
<path d="M81.9023 27.3318C79.6356 27.3984 77.8356 29.5318 77.9356 32.1318L78.0356 35.6984L60.0356 17.6984C58.6356 16.2984 56.3689 16.2984 54.9689 17.6984C53.5689 19.0984 53.5689 21.3651 54.9689 22.7651L66.2356 34.0318L67.1356 34.9318C67.4689 35.2651 67.4689 35.8651 67.1356 36.1984C66.8023 36.5318 66.2023 36.5318 65.8689 36.1984L64.3023 34.6318L51.0023 21.3318C49.6356 19.9651 47.4023 19.9651 46.0356 21.3318L45.9356 21.4318C44.5689 22.7984 44.5689 25.0318 45.9356 26.3984L58.4356 38.8984L60.8023 41.2651C61.1356 41.5984 61.1356 42.1984 60.8023 42.5318C60.4689 42.8651 59.8689 42.8651 59.5356 42.5318L57.1689 40.1651L47.6023 30.5984C46.2356 29.2318 43.9689 29.2318 42.6023 30.5984L42.5356 30.6651C41.1689 32.0318 41.1689 34.2984 42.5356 35.6651L52.9023 46.0318L54.4689 47.5984C54.8023 47.9318 54.8023 48.5318 54.4689 48.8651C54.1356 49.1984 53.5356 49.1984 53.2023 48.8651L52.3023 47.9651L46.7689 42.4318C45.4356 41.0984 43.2689 41.0984 41.9356 42.4318L41.6689 42.6984C40.3356 44.0318 40.3356 46.1984 41.6689 47.5318C41.6689 47.5318 50.2023 55.9984 58.9689 64.7651C65.4356 71.2318 77.5023 70.0984 84.4689 63.1318L84.6356 62.9651C87.5689 60.0318 88.9689 56.1651 88.8689 52.2984C88.8689 51.5318 88.869 50.7651 88.769 50.0318L86.1689 31.9318C86.1023 29.3318 84.2023 27.2984 81.9356 27.3651L81.9023 27.3318Z" fill="#6B6BE1"/>
<path d="M89.1352 27.3318C86.8685 27.3984 85.0685 29.5318 85.1685 32.1318L85.2685 35.6984L67.2685 17.6984C65.8685 16.2984 63.6019 16.2984 62.2019 17.6984C60.8019 19.0984 60.8019 21.3651 62.2019 22.7651L73.4685 34.0318L74.3685 34.9318C74.7019 35.2651 74.7019 35.8651 74.3685 36.1984C74.0352 36.5318 73.4352 36.5318 73.1019 36.1984L71.5352 34.6318L58.2352 21.3318C56.8685 19.9651 54.6352 19.9651 53.2685 21.3318L53.1685 21.4318C51.8019 22.7984 51.8019 25.0318 53.1685 26.3984L65.6685 38.8984L68.0352 41.2651C68.3685 41.5984 68.3685 42.1984 68.0352 42.5318C67.7019 42.8651 67.1019 42.8651 66.7685 42.5318L64.4019 40.1651L54.8352 30.5984C53.4685 29.2318 51.2019 29.2318 49.8352 30.5984L49.7685 30.6651C48.4019 32.0318 48.4019 34.2984 49.7685 35.6651L60.1352 46.0318L61.7019 47.5984C62.0352 47.9318 62.0352 48.5318 61.7019 48.8651C61.3685 49.1984 60.7685 49.1984 60.4352 48.8651L59.5352 47.9651L54.0019 42.4318C52.6685 41.0984 50.5019 41.0984 49.1685 42.4318L48.9019 42.6984C47.5685 44.0318 47.5685 46.1984 48.9019 47.5318C48.9019 47.5318 57.4352 55.9984 66.2019 64.7651C72.6685 71.2318 84.7352 70.0984 91.7019 63.1318L91.8685 62.9651C94.8019 60.0318 96.2019 56.1651 96.1019 52.2984C96.1019 51.5318 96.1019 50.7651 96.0019 50.0318L93.4019 31.9318C93.3352 29.3318 91.4352 27.2984 89.1685 27.3651L89.1352 27.3318Z" fill="url(#paint0_linear_5882_33215)"/>
<path fill-rule="evenodd" clip-rule="evenodd" d="M93.6437 10.8594C94.8807 11.4727 95.3863 12.9727 94.7729 14.2097L90.8063 22.2098C90.1929 23.4468 88.6929 23.9523 87.4559 23.339C86.2189 22.7256 85.7133 21.2256 86.3267 19.9886L90.2934 11.9886C90.9067 10.7516 92.4067 10.2461 93.6437 10.8594Z" fill="#8484E6"/>
<path fill-rule="evenodd" clip-rule="evenodd" d="M103.456 19.9182C104.219 21.0691 103.904 22.6204 102.753 23.3831L97.2196 27.0497C96.0686 27.8124 94.5173 27.4977 93.7547 26.3467C92.992 25.1958 93.3068 23.6445 94.4577 22.8818L99.991 19.2151C101.142 18.4524 102.693 18.7672 103.456 19.9182Z" fill="#8484E6"/>
<path fill-rule="evenodd" clip-rule="evenodd" d="M80.5069 8.50438C81.8847 8.41482 83.0742 9.45915 83.1638 10.837L83.5971 17.5036C83.6867 18.8814 82.6423 20.071 81.2645 20.1605C79.8867 20.2501 78.6972 19.2057 78.6076 17.8279L78.1743 11.1613C78.0847 9.78347 79.1291 8.59394 80.5069 8.50438Z" fill="#8484E6"/>
<defs>
<linearGradient id="paint0_linear_5882_33215" x1="94.3568" y1="69.4868" x2="48.5863" y2="70.5762" gradientUnits="userSpaceOnUse">
<stop stop-color="#DDD9F8"/>
<stop offset="0.273644" stop-color="#E4E4FF"/>
<stop offset="0.610199" stop-color="#CCE4FF"/>
</linearGradient>
</defs>
</svg>
