<svg width="39" height="37" viewBox="0 0 39 37" fill="none" xmlns="http://www.w3.org/2000/svg">
<path d="M25.0398 11.4002C23.6798 11.4402 22.5998 12.7202 22.6598 14.2802L22.7198 16.4202L11.9198 5.62023C11.0798 4.78023 9.7198 4.78023 8.8798 5.62023C8.0398 6.46023 8.0398 7.82024 8.8798 8.66024L15.6398 15.4202L16.1798 15.9602C16.3798 16.1602 16.3798 16.5202 16.1798 16.7202C15.9798 16.9202 15.6198 16.9202 15.4198 16.7202L14.4798 15.7802L6.4998 7.80023C5.6798 6.98023 4.3398 6.98023 3.5198 7.80023L3.4598 7.86023C2.6398 8.68023 2.6398 10.0202 3.4598 10.8402L10.9598 18.3402L12.3798 19.7602C12.5798 19.9602 12.5798 20.3202 12.3798 20.5202C12.1798 20.7202 11.8198 20.7202 11.6198 20.5202L10.1998 19.1002L4.4598 13.3602C3.6398 12.5402 2.2798 12.5402 1.4598 13.3602L1.4198 13.4002C0.599805 14.2202 0.599805 15.5802 1.4198 16.4002L7.6398 22.6202L8.5798 23.5602C8.7798 23.7602 8.7798 24.1202 8.5798 24.3202C8.3798 24.5202 8.01981 24.5202 7.81981 24.3202L7.27981 23.7802L3.9598 20.4602C3.1598 19.6602 1.85981 19.6602 1.05981 20.4602L0.899805 20.6202C0.0998047 21.4202 0.0998047 22.7202 0.899805 23.5202C0.899805 23.5202 6.0198 28.6002 11.2798 33.8602C15.1598 37.7402 22.3998 37.0602 26.5798 32.8802L26.6798 32.7802C28.4398 31.0202 29.2798 28.7002 29.2198 26.3802C29.2198 25.9202 29.2198 25.4602 29.1598 25.0202L27.5998 14.1602C27.5598 12.6002 26.4198 11.3802 25.0598 11.4202L25.0398 11.4002Z" fill="#6B6BE1"/>
<path d="M29.3796 11.4002C28.0196 11.4402 26.9397 12.7202 26.9997 14.2802L27.0596 16.4202L16.2596 5.62023C15.4196 4.78023 14.0596 4.78023 13.2196 5.62023C12.3796 6.46023 12.3796 7.82024 13.2196 8.66024L19.9796 15.4202L20.5196 15.9602C20.7196 16.1602 20.7196 16.5202 20.5196 16.7202C20.3196 16.9202 19.9596 16.9202 19.7596 16.7202L18.8196 15.7802L10.8396 7.80023C10.0196 6.98023 8.67965 6.98023 7.85965 7.80023L7.79965 7.86023C6.97965 8.68023 6.97965 10.0202 7.79965 10.8402L15.2997 18.3402L16.7196 19.7602C16.9196 19.9602 16.9196 20.3202 16.7196 20.5202C16.5196 20.7202 16.1597 20.7202 15.9597 20.5202L14.5396 19.1002L8.79965 13.3602C7.97965 12.5402 6.61965 12.5402 5.79965 13.3602L5.75965 13.4002C4.93965 14.2202 4.93965 15.5802 5.75965 16.4002L11.9796 22.6202L12.9196 23.5602C13.1196 23.7602 13.1196 24.1202 12.9196 24.3202C12.7196 24.5202 12.3596 24.5202 12.1596 24.3202L11.6196 23.7802L8.29965 20.4602C7.49965 19.6602 6.19965 19.6602 5.39965 20.4602L5.23965 20.6202C4.43965 21.4202 4.43965 22.7202 5.23965 23.5202C5.23965 23.5202 10.3596 28.6002 15.6196 33.8602C19.4997 37.7402 26.7396 37.0602 30.9196 32.8802L31.0196 32.7802C32.7796 31.0202 33.6196 28.7002 33.5596 26.3802C33.5596 25.9202 33.5597 25.4602 33.4997 25.0202L31.9396 14.1602C31.8996 12.6002 30.7596 11.3802 29.3996 11.4202L29.3796 11.4002Z" fill="url(#paint0_linear_3333_34114)"/>
<path fill-rule="evenodd" clip-rule="evenodd" d="M32.0857 1.51583C32.8279 1.88384 33.1313 2.78384 32.7633 3.52604L30.3833 8.32605C30.0153 9.06825 29.1153 9.37159 28.3731 9.00358C27.6309 8.63558 27.3275 7.73557 27.6955 6.99337L30.0755 2.19337C30.4435 1.45117 31.3435 1.14783 32.0857 1.51583Z" fill="#8484E6"/>
<path fill-rule="evenodd" clip-rule="evenodd" d="M37.97 6.95089C38.4276 7.64146 38.2387 8.57224 37.5481 9.02985L34.2281 11.2298C33.5376 11.6875 32.6068 11.4986 32.1492 10.808C31.6916 10.1175 31.8804 9.18667 32.571 8.72907L35.891 6.52907C36.5816 6.07146 37.5124 6.26032 37.97 6.95089Z" fill="#8484E6"/>
<path fill-rule="evenodd" clip-rule="evenodd" d="M24.2026 0.102823C25.0292 0.0490885 25.743 0.675687 25.7967 1.50237L26.0567 5.50237C26.1104 6.32905 25.4838 7.04277 24.6572 7.09651C23.8305 7.15024 23.1168 6.52364 23.063 5.69696L22.803 1.69696C22.7493 0.870275 23.3759 0.156557 24.2026 0.102823Z" fill="#8484E6"/>
<defs>
<linearGradient id="paint0_linear_3333_34114" x1="32.5126" y1="36.6932" x2="5.05032" y2="37.3469" gradientUnits="userSpaceOnUse">
<stop stop-color="#DDD9F8"/>
<stop offset="0.273644" stop-color="#E4E4FF"/>
<stop offset="0.610199" stop-color="#CCE4FF"/>
</linearGradient>
</defs>
</svg>
