<svg width="41" height="40" viewBox="0 0 41 40" fill="none" xmlns="http://www.w3.org/2000/svg">
<g clip-path="url(#clip0_2200_14897)">
<path d="M19.5138 2.89453L2.4598 19.9055C1.5608 20.8025 2.4658 24.5615 5.5168 27.6195C8.5678 30.6775 12.6108 31.8775 13.5088 30.9805L30.5638 13.9705L19.5138 2.89453Z" fill="url(#paint0_linear_2200_14897)"/>
<path d="M30.5592 13.969C31.4581 13.0722 29.7134 9.86601 26.6624 6.80771C23.6113 3.74941 20.4093 1.99712 19.5104 2.89387C18.6115 3.79062 20.3562 6.99682 23.4072 10.0551C26.4583 13.1134 29.6603 14.8657 30.5592 13.969Z" fill="#8484E6"/>
<path d="M28.4454 29.2981L26.9674 28.9621L27.1364 28.2231C28.2264 23.4361 35.0174 17.6531 35.3054 17.4091C37.7364 14.9801 37.7404 10.9551 35.2704 8.47815C32.7994 6.00115 28.7744 5.99715 26.2984 8.46815L25.7624 9.00315L24.6914 7.93015L25.2274 7.39515C28.2954 4.33415 33.2814 4.34115 36.3424 7.40715C39.4034 10.4751 39.3974 15.4621 36.3294 18.5231C36.2164 18.6221 29.5914 24.2651 28.6134 28.5581L28.4454 29.2971V29.2981Z" fill="#C2C2F3"/>
<path d="M26.906 23.2734L28.419 26.6504L31.877 25.3334L30.559 28.7904L33.936 30.3044L30.559 31.8174L31.877 35.2754L28.419 33.9574L26.906 37.3344L25.392 33.9574L21.934 35.2754L23.252 31.8174L19.875 30.3044L23.252 28.7904L21.934 25.3334L25.392 26.6504L26.906 23.2734Z" fill="url(#paint1_linear_2200_14897)"/>
<path d="M26.0857 32.2821L24.2127 32.9951L24.9267 31.1221L23.0977 30.3031L24.9267 29.4831L24.2137 27.6111L26.0857 28.3241L26.9057 26.4961L27.7247 28.3241L29.5977 27.6111L28.8837 29.4831L30.7127 30.3031L28.8837 31.1221L29.5977 32.9951L27.7247 32.2821L26.9057 34.1101L26.0857 32.2821Z" fill="#C2C2F3"/>
</g>
<defs>
<linearGradient id="paint0_linear_2200_14897" x1="16.3464" y1="31.2707" x2="16.3464" y2="2.89453" gradientUnits="userSpaceOnUse">
<stop stop-color="#F9A8B2"/>
<stop offset="1" stop-color="#E9838F"/>
</linearGradient>
<linearGradient id="paint1_linear_2200_14897" x1="26.9055" y1="37.3344" x2="26.9055" y2="23.2734" gradientUnits="userSpaceOnUse">
<stop stop-color="#F9A8B2"/>
<stop offset="1" stop-color="#E9838F"/>
</linearGradient>
<clipPath id="clip0_2200_14897">
<rect width="40" height="40" fill="white" transform="translate(0.5)"/>
</clipPath>
</defs>
</svg>
