<svg width="41" height="40" viewBox="0 0 41 40" fill="none" xmlns="http://www.w3.org/2000/svg">
<path d="M11.9032 35.75L18.8742 32.367C19.5632 32.032 20.0012 31.334 20.0012 30.568V19.265C20.0012 18.499 19.5632 17.8 18.8742 17.466L14.7452 15.462C12.5192 14.381 11.1052 12.124 11.1052 9.64995H29.8962C29.8962 12.124 28.4832 14.382 26.2562 15.462L22.1272 17.466C21.4382 17.8 21.0002 18.499 21.0002 19.265V30.568C21.0002 31.334 21.4382 32.033 22.1272 32.367L29.0982 35.75H31.8022V30.3519C31.8022 27.375 30.1022 24.66 27.4242 23.361L22.5312 20.986C22.1542 20.803 21.9142 20.42 21.9142 20.001C21.9142 19.582 22.1542 19.199 22.5312 19.016L27.4242 16.641C30.1022 15.341 31.8022 12.626 31.8022 9.64995V4.25195H9.19922V9.64995C9.19922 12.627 10.8992 15.342 13.5772 16.641L18.4702 19.016C18.8472 19.199 19.0872 19.582 19.0872 20.001C19.0872 20.42 18.8472 20.803 18.4702 20.986L13.5772 23.361C10.8992 24.661 9.19922 27.3759 9.19922 30.3519V35.75H11.9032Z" fill="#C2C2F3"/>
<path d="M20.9937 30.5664V19.2634C20.9937 18.4974 21.4317 17.7984 22.1207 17.4644L26.2497 15.4604C28.4757 14.3794 29.8897 12.1224 29.8897 9.64844H11.0977C11.0977 12.1224 12.5107 14.3804 14.7377 15.4604L18.8667 17.4644C19.5557 17.7984 19.9937 18.4974 19.9937 19.2634V30.5664C19.9937 31.3324 19.5557 32.0314 18.8667 32.3654L11.8957 35.7484H29.0907L22.1197 32.3654C21.4307 32.0304 20.9937 31.3324 20.9937 30.5664Z" fill="#8484E6"/>
<path d="M31.7973 4.25C32.4873 4.25 33.0473 3.69 33.0473 3C33.0473 2.31 32.4873 1.75 31.7973 1.75H9.19531C8.50531 1.75 7.94531 2.31 7.94531 3C7.94531 3.69 8.50531 4.25 9.19531 4.25H31.7973Z" fill="#6B6BE1"/>
<path d="M31.7973 35.75H9.19531C8.50531 35.75 7.94531 36.31 7.94531 37C7.94531 37.69 8.50531 38.25 9.19531 38.25H31.7983C32.4883 38.25 33.0483 37.69 33.0483 37C33.0483 36.31 32.4873 35.75 31.7973 35.75Z" fill="#6B6BE1"/>
</svg>
