<svg width="40" height="40" viewBox="0 0 40 40" fill="none" xmlns="http://www.w3.org/2000/svg">
<path d="M19.9987 36.6663C29.2034 36.6663 36.6654 29.2044 36.6654 19.9997C36.6654 10.7949 29.2034 3.33301 19.9987 3.33301C10.794 3.33301 3.33203 10.7949 3.33203 19.9997C3.33203 29.2044 10.794 36.6663 19.9987 36.6663Z" fill="url(#paint0_linear_4399_3241)"/>
<path d="M23.7487 18.3328C24.6692 18.3328 25.4154 17.5867 25.4154 16.6662C25.4154 15.7457 24.6692 14.9995 23.7487 14.9995C22.8282 14.9995 22.082 15.7457 22.082 16.6662C22.082 17.5867 22.8282 18.3328 23.7487 18.3328Z" fill="#0F1114"/>
<path d="M16.2643 18.3328C17.1848 18.3328 17.931 17.5867 17.931 16.6662C17.931 15.7457 17.1848 14.9995 16.2643 14.9995C15.3438 14.9995 14.5977 15.7457 14.5977 16.6662C14.5977 17.5867 15.3438 18.3328 16.2643 18.3328Z" fill="#0F1114"/>
<path d="M16.9503 25.7997C16.6169 25.7997 16.2669 25.6997 15.9669 25.4831C15.2169 24.9497 15.0669 23.8831 15.5836 23.1164C15.7169 22.9331 16.9336 21.3164 19.8503 21.3164C22.6169 21.3164 24.0836 22.7497 24.2503 22.9164C24.8836 23.5831 24.8669 24.6331 24.2003 25.2664C23.5503 25.8997 22.5169 25.8831 21.8669 25.2497C21.8003 25.1997 21.1503 24.6331 19.8503 24.6331C18.6836 24.6331 18.2669 25.0664 18.2503 25.0997C17.9336 25.5497 17.4503 25.7831 16.9336 25.7831L16.9503 25.7997Z" fill="#0F1114"/>
<defs>
<linearGradient id="paint0_linear_4399_3241" x1="35.4552" y1="36.9512" x2="3.80857" y2="37.7698" gradientUnits="userSpaceOnUse">
<stop stop-color="#DDD9F8"/>
<stop offset="0.273644" stop-color="#E4E4FF"/>
<stop offset="0.610199" stop-color="#CCE4FF"/>
</linearGradient>
</defs>
</svg>
