<svg width="143" height="80" viewBox="0 0 143 80" fill="none" xmlns="http://www.w3.org/2000/svg">
<rect x="126.376" y="51.1924" width="11.4336" height="11.4336" rx="2.14381" transform="rotate(-45 126.376 51.1924)" fill="#F2F2E9"/>
<rect x="14.2043" y="34.6846" width="10.7367" height="10.7367" rx="1.8317" transform="rotate(-45 14.2043 34.6846)" fill="#CAB5E3"/>
<rect x="116.212" y="22.5127" width="7.37614" height="7.37614" rx="1.38303" transform="rotate(-45 116.212 22.5127)" fill="#CAB5E3"/>
<rect x="129.376" y="9.21582" width="7.37614" height="7.37614" rx="1.38303" transform="rotate(-45 129.376 9.21582)" fill="#D8F1EB"/>
<rect x="0.454346" y="60.2549" width="8.00257" height="8.00257" rx="1.36526" transform="rotate(-45 0.454346 60.2549)" fill="#D8F1EB"/>
<path d="M81.9025 27.3318C79.6359 27.3984 77.8359 29.5318 77.9359 32.1318L78.0359 35.6984L60.0359 17.6984C58.6359 16.2984 56.3692 16.2984 54.9692 17.6984C53.5692 19.0984 53.5692 21.3651 54.9692 22.7651L66.2359 34.0318L67.1359 34.9318C67.4692 35.2651 67.4692 35.8651 67.1359 36.1984C66.8025 36.5318 66.2025 36.5318 65.8692 36.1984L64.3025 34.6318L51.0025 21.3318C49.6359 19.9651 47.4025 19.9651 46.0359 21.3318L45.9359 21.4318C44.5692 22.7984 44.5692 25.0318 45.9359 26.3984L58.4359 38.8984L60.8025 41.2651C61.1359 41.5984 61.1359 42.1984 60.8025 42.5318C60.4692 42.8651 59.8692 42.8651 59.5359 42.5318L57.1692 40.1651L47.6025 30.5984C46.2359 29.2318 43.9692 29.2318 42.6025 30.5984L42.5359 30.6651C41.1692 32.0318 41.1692 34.2984 42.5359 35.6651L52.9025 46.0318L54.4692 47.5984C54.8025 47.9318 54.8025 48.5318 54.4692 48.8651C54.1359 49.1984 53.5359 49.1984 53.2025 48.8651L52.3025 47.9651L46.7692 42.4318C45.4359 41.0984 43.2692 41.0984 41.9359 42.4318L41.6692 42.6984C40.3359 44.0318 40.3359 46.1984 41.6692 47.5318C41.6692 47.5318 50.2025 55.9984 58.9692 64.7651C65.4359 71.2318 77.5025 70.0984 84.4692 63.1318L84.6359 62.9651C87.5692 60.0318 88.9692 56.1651 88.8692 52.2984C88.8692 51.5318 88.8692 50.7651 88.7692 50.0318L86.1692 31.9318C86.1025 29.3318 84.2025 27.2984 81.9359 27.3651L81.9025 27.3318Z" fill="#6B6BE1"/>
<path d="M89.1357 27.3318C86.869 27.3984 85.069 29.5318 85.169 32.1318L85.269 35.6984L67.269 17.6984C65.869 16.2984 63.6023 16.2984 62.2023 17.6984C60.8023 19.0984 60.8023 21.3651 62.2023 22.7651L73.469 34.0318L74.369 34.9318C74.7023 35.2651 74.7023 35.8651 74.369 36.1984C74.0357 36.5318 73.4357 36.5318 73.1023 36.1984L71.5357 34.6318L58.2357 21.3318C56.869 19.9651 54.6357 19.9651 53.269 21.3318L53.169 21.4318C51.8023 22.7984 51.8023 25.0318 53.169 26.3984L65.669 38.8984L68.0357 41.2651C68.369 41.5984 68.369 42.1984 68.0357 42.5318C67.7023 42.8651 67.1023 42.8651 66.769 42.5318L64.4023 40.1651L54.8357 30.5984C53.469 29.2318 51.2023 29.2318 49.8357 30.5984L49.769 30.6651C48.4023 32.0318 48.4023 34.2984 49.769 35.6651L60.1357 46.0318L61.7023 47.5984C62.0357 47.9318 62.0357 48.5318 61.7023 48.8651C61.369 49.1984 60.769 49.1984 60.4357 48.8651L59.5357 47.9651L54.0023 42.4318C52.669 41.0984 50.5023 41.0984 49.169 42.4318L48.9023 42.6984C47.569 44.0318 47.569 46.1984 48.9023 47.5318C48.9023 47.5318 57.4357 55.9984 66.2023 64.7651C72.669 71.2318 84.7357 70.0984 91.7023 63.1318L91.869 62.9651C94.8023 60.0318 96.2023 56.1651 96.1023 52.2984C96.1023 51.5318 96.1024 50.7651 96.0023 50.0318L93.4023 31.9318C93.3357 29.3318 91.4357 27.2984 89.169 27.3651L89.1357 27.3318Z" fill="url(#paint0_linear_4415_26732)"/>
<path fill-rule="evenodd" clip-rule="evenodd" d="M93.6442 10.8594C94.8812 11.4727 95.3868 12.9727 94.7734 14.2097L90.8067 22.2098C90.1934 23.4468 88.6934 23.9523 87.4564 23.339C86.2194 22.7256 85.7138 21.2256 86.3272 19.9886L90.2938 11.9886C90.9072 10.7516 92.4072 10.2461 93.6442 10.8594Z" fill="#8484E6"/>
<path fill-rule="evenodd" clip-rule="evenodd" d="M103.456 19.9182C104.219 21.0691 103.904 22.6204 102.753 23.3831L97.2196 27.0497C96.0686 27.8124 94.5173 27.4977 93.7547 26.3467C92.992 25.1958 93.3068 23.6445 94.4577 22.8818L99.991 19.2151C101.142 18.4524 102.693 18.7672 103.456 19.9182Z" fill="#8484E6"/>
<path fill-rule="evenodd" clip-rule="evenodd" d="M80.5071 8.50438C81.8849 8.41482 83.0745 9.45915 83.164 10.837L83.5973 17.5036C83.6869 18.8814 82.6426 20.071 81.2648 20.1605C79.887 20.2501 78.6974 19.2057 78.6079 17.8279L78.1745 11.1613C78.085 9.78347 79.1293 8.59394 80.5071 8.50438Z" fill="#8484E6"/>
<defs>
<linearGradient id="paint0_linear_4415_26732" x1="94.3573" y1="69.4868" x2="48.5868" y2="70.5762" gradientUnits="userSpaceOnUse">
<stop stop-color="#DDD9F8"/>
<stop offset="0.273644" stop-color="#E4E4FF"/>
<stop offset="0.610199" stop-color="#CCE4FF"/>
</linearGradient>
</defs>
</svg>
