<svg width="40" height="40" viewBox="0 0 40 40" fill="none" xmlns="http://www.w3.org/2000/svg">
<path d="M19.9987 36.6663C29.2034 36.6663 36.6654 29.2044 36.6654 19.9997C36.6654 10.7949 29.2034 3.33301 19.9987 3.33301C10.794 3.33301 3.33203 10.7949 3.33203 19.9997C3.33203 29.2044 10.794 36.6663 19.9987 36.6663Z" fill="#7E8999"/>
<path fill-rule="evenodd" clip-rule="evenodd" d="M13.898 16.1C13.5146 16.2333 13.348 16.7167 13.6146 17.0333C14.2313 17.8 15.2646 18.1333 16.248 17.8C17.2313 17.4667 17.8313 16.55 17.848 15.5833C17.848 15.1667 17.4313 14.8833 17.048 15.0167L13.9146 16.1H13.898Z" fill="#0F1114"/>
<path fill-rule="evenodd" clip-rule="evenodd" d="M26.0965 16.1C26.4798 16.2333 26.6465 16.7167 26.3798 17.0333C25.7632 17.8 24.7298 18.1333 23.7465 17.8C22.7632 17.4667 22.1632 16.55 22.1465 15.5833C22.1465 15.1667 22.5632 14.8833 22.9465 15.0167L26.0798 16.1H26.0965Z" fill="#0F1114"/>
<path fill-rule="evenodd" clip-rule="evenodd" d="M16.8313 25.8165C16.048 25.8165 15.448 25.0332 15.7147 24.2999C16.348 22.5332 18.0147 21.2832 19.998 21.2832C21.9813 21.2832 23.648 22.5499 24.2813 24.2999C24.548 25.0499 23.9647 25.8165 23.1647 25.8165H16.8313Z" fill="#0F1114"/>
</svg>
