<svg width="40" height="40" viewBox="0 0 40 40" fill="none" xmlns="http://www.w3.org/2000/svg">
<path d="M19.9987 36.6663C29.2034 36.6663 36.6654 29.2044 36.6654 19.9997C36.6654 10.7949 29.2034 3.33301 19.9987 3.33301C10.794 3.33301 3.33203 10.7949 3.33203 19.9997C3.33203 29.2044 10.794 36.6663 19.9987 36.6663Z" fill="#7E8999"/>
<path d="M23.7331 18.3328C24.6535 18.3328 25.3997 17.5867 25.3997 16.6662C25.3997 15.7457 24.6535 14.9995 23.7331 14.9995C22.8126 14.9995 22.0664 15.7457 22.0664 16.6662C22.0664 17.5867 22.8126 18.3328 23.7331 18.3328Z" fill="#0F1114"/>
<path d="M16.2487 18.3328C17.1692 18.3328 17.9154 17.5867 17.9154 16.6662C17.9154 15.7457 17.1692 14.9995 16.2487 14.9995C15.3282 14.9995 14.582 15.7457 14.582 16.6662C14.582 17.5867 15.3282 18.3328 16.2487 18.3328Z" fill="#0F1114"/>
<path d="M22.8994 25.2H17.0827C16.166 25.2 15.416 24.45 15.416 23.5334C15.416 22.6167 16.166 21.8667 17.0827 21.8667H22.8994C23.816 21.8667 24.566 22.6167 24.566 23.5334C24.566 24.45 23.816 25.2 22.8994 25.2Z" fill="#0F1114"/>
</svg>
