<svg width="28" height="28" viewBox="0 0 28 28" fill="none" xmlns="http://www.w3.org/2000/svg">
<g clip-path="url(#clip0_3251_174789)" filter="url(#filter0_d_3251_174789)">
<path d="M15.7248 10.8329C15.1582 10.8496 14.7082 11.3829 14.7332 12.0329L14.7582 12.9246L10.2582 8.42461C9.90817 8.07461 9.3415 8.07461 8.9915 8.42461C8.6415 8.77461 8.6415 9.34128 8.9915 9.69128L11.8082 12.5079L12.0332 12.7329C12.1165 12.8163 12.1165 12.9663 12.0332 13.0496C11.9498 13.1329 11.7998 13.1329 11.7165 13.0496L11.3248 12.6579L7.99984 9.33294C7.65817 8.99128 7.09984 8.99128 6.75817 9.33294L6.73317 9.35794C6.3915 9.69961 6.3915 10.2579 6.73317 10.5996L9.85817 13.7246L10.4498 14.3163C10.5332 14.3996 10.5332 14.5496 10.4498 14.6329C10.3665 14.7163 10.2165 14.7163 10.1332 14.6329L9.5415 14.0413L7.14984 11.6496C6.80817 11.3079 6.2415 11.3079 5.89984 11.6496L5.88317 11.6663C5.5415 12.0079 5.5415 12.5746 5.88317 12.9163L8.47484 15.5079L8.8665 15.8996C8.94984 15.9829 8.94984 16.1329 8.8665 16.2163C8.78317 16.2996 8.63317 16.2996 8.54984 16.2163L8.32484 15.9913L6.9415 14.6079C6.60817 14.2746 6.0665 14.2746 5.73317 14.6079L5.6665 14.6746C5.33317 15.0079 5.33317 15.5496 5.6665 15.8829C5.6665 15.8829 7.79984 17.9996 9.9915 20.1913C11.6082 21.8079 14.6248 21.5246 16.3665 19.7829L16.4082 19.7413C17.1415 19.0079 17.4915 18.0413 17.4665 17.0746C17.4665 16.8829 17.4665 16.6913 17.4415 16.5079L16.7915 11.9829C16.7748 11.3329 16.2998 10.8246 15.7332 10.8413L15.7248 10.8329Z" fill="#6B6BE1"/>
<path d="M17.5332 10.8329C16.9665 10.8496 16.5165 11.3829 16.5415 12.0329L16.5665 12.9246L12.0665 8.42461C11.7165 8.07461 11.1499 8.07461 10.7999 8.42461C10.4499 8.77461 10.4499 9.34128 10.7999 9.69128L13.6165 12.5079L13.8415 12.7329C13.9249 12.8163 13.9249 12.9663 13.8415 13.0496C13.7582 13.1329 13.6082 13.1329 13.5249 13.0496L13.1332 12.6579L9.80819 9.33294C9.46652 8.99128 8.90819 8.99128 8.56652 9.33294L8.54152 9.35794C8.19985 9.69961 8.19985 10.2579 8.54152 10.5996L11.6665 13.7246L12.2582 14.3163C12.3415 14.3996 12.3415 14.5496 12.2582 14.6329C12.1749 14.7163 12.0249 14.7163 11.9415 14.6329L11.3499 14.0413L8.95819 11.6496C8.61652 11.3079 8.04985 11.3079 7.70819 11.6496L7.69152 11.6663C7.34985 12.0079 7.34985 12.5746 7.69152 12.9163L10.2832 15.5079L10.6749 15.8996C10.7582 15.9829 10.7582 16.1329 10.6749 16.2163C10.5915 16.2996 10.4415 16.2996 10.3582 16.2163L10.1332 15.9913L8.74985 14.6079C8.41652 14.2746 7.87485 14.2746 7.54152 14.6079L7.47485 14.6746C7.14152 15.0079 7.14152 15.5496 7.47485 15.8829C7.47485 15.8829 9.60819 17.9996 11.7999 20.1913C13.4165 21.8079 16.4332 21.5246 18.1749 19.7829L18.2165 19.7413C18.9499 19.0079 19.2999 18.0413 19.2749 17.0746C19.2749 16.8829 19.2749 16.6913 19.2499 16.5079L18.5999 11.9829C18.5832 11.3329 18.1082 10.8246 17.5415 10.8413L17.5332 10.8329Z" fill="url(#paint0_linear_3251_174789)"/>
<path fill-rule="evenodd" clip-rule="evenodd" d="M18.661 6.71461C18.9703 6.86794 19.0967 7.24294 18.9434 7.55219L17.9517 9.55219C17.7984 9.86144 17.4233 9.98784 17.1141 9.8345C16.8048 9.68116 16.6785 9.30616 16.8318 8.99691L17.8235 6.99691C17.9768 6.68766 18.3518 6.56127 18.661 6.71461Z" fill="#8484E6"/>
<path fill-rule="evenodd" clip-rule="evenodd" d="M21.1124 8.97905C21.3031 9.26679 21.2244 9.65461 20.9366 9.84528L19.5533 10.7619C19.2656 10.9526 18.8777 10.8739 18.6871 10.5862C18.4964 10.2985 18.5751 9.91063 18.8628 9.71996L20.2462 8.80329C20.5339 8.61262 20.9217 8.69131 21.1124 8.97905Z" fill="#8484E6"/>
<path fill-rule="evenodd" clip-rule="evenodd" d="M15.376 6.12634C15.7204 6.10395 16.0178 6.36503 16.0402 6.70948L16.1485 8.37615C16.1709 8.7206 15.9098 9.01798 15.5654 9.04037C15.2209 9.06276 14.9236 8.80168 14.9012 8.45723L14.7928 6.79056C14.7705 6.44611 15.0315 6.14873 15.376 6.12634Z" fill="#8484E6"/>
</g>
<defs>
<filter id="filter0_d_3251_174789" x="0.5" y="0.666667" width="26.6667" height="26.6667" filterUnits="userSpaceOnUse" color-interpolation-filters="sRGB">
<feFlood flood-opacity="0" result="BackgroundImageFix"/>
<feColorMatrix in="SourceAlpha" type="matrix" values="0 0 0 0 0 0 0 0 0 0 0 0 0 0 0 0 0 0 127 0" result="hardAlpha"/>
<feOffset dx="0.833333"/>
<feGaussianBlur stdDeviation="1.66667"/>
<feComposite in2="hardAlpha" operator="out"/>
<feColorMatrix type="matrix" values="0 0 0 0 0 0 0 0 0 0 0 0 0 0 0 0 0 0 0.1 0"/>
<feBlend mode="normal" in2="BackgroundImageFix" result="effect1_dropShadow_3251_174789"/>
<feBlend mode="normal" in="SourceGraphic" in2="effect1_dropShadow_3251_174789" result="shape"/>
</filter>
<linearGradient id="paint0_linear_3251_174789" x1="18.8386" y1="21.3717" x2="7.39596" y2="21.644" gradientUnits="userSpaceOnUse">
<stop stop-color="#DDD9F8"/>
<stop offset="0.273644" stop-color="#E4E4FF"/>
<stop offset="0.610199" stop-color="#CCE4FF"/>
</linearGradient>
<clipPath id="clip0_3251_174789">
<rect width="20" height="20" fill="white" transform="translate(3 4)"/>
</clipPath>
</defs>
</svg>
