<svg width="18" height="18" viewBox="0 0 18 18" fill="none" xmlns="http://www.w3.org/2000/svg">
<path d="M10.667 1.49935C10.667 1.03911 11.0401 0.666016 11.5003 0.666016H16.5003C16.9606 0.666016 17.3337 1.03911 17.3337 1.49935L17.3337 6.49935C17.3337 6.95959 16.9606 7.33268 16.5003 7.33268C16.0401 7.33268 15.667 6.95959 15.667 6.49935L15.667 3.5112L10.4229 8.75527C10.0975 9.08071 9.56984 9.08071 9.2444 8.75527C8.91897 8.42983 8.91897 7.9022 9.2444 7.57676L14.4885 2.33268H11.5003C11.0401 2.33268 10.667 1.95959 10.667 1.49935Z" fill="#A7B4C7"/>
<path d="M5.46591 2.33268L7.33366 2.33268C7.7939 2.33268 8.16699 2.70578 8.16699 3.16602C8.16699 3.62625 7.7939 3.99935 7.33366 3.99935H5.50033C4.78651 3.99935 4.30127 4 3.92619 4.03064C3.56085 4.06049 3.37401 4.1146 3.24368 4.18101C2.93007 4.34079 2.6751 4.59576 2.51532 4.90937C2.44891 5.0397 2.3948 5.22654 2.36495 5.59188C2.33431 5.96696 2.33366 6.4522 2.33366 7.16602V12.4994C2.33366 13.2132 2.33431 13.6984 2.36495 14.0735C2.3948 14.4388 2.44891 14.6257 2.51532 14.756C2.6751 15.0696 2.93007 15.3246 3.24368 15.4844C3.37401 15.5508 3.56085 15.6049 3.92619 15.6347C4.30127 15.6654 4.78651 15.666 5.50033 15.666H10.8337C11.5475 15.666 12.0327 15.6654 12.4078 15.6347C12.7731 15.6049 12.96 15.5508 13.0903 15.4844C13.4039 15.3246 13.6589 15.0696 13.8187 14.756C13.8851 14.6257 13.9392 14.4388 13.969 14.0735C13.9997 13.6984 14.0003 13.2132 14.0003 12.4994V10.666C14.0003 10.2058 14.3734 9.83268 14.8337 9.83268C15.2939 9.83268 15.667 10.2058 15.667 10.666V12.5338C15.667 13.2046 15.667 13.7582 15.6302 14.2092C15.5919 14.6776 15.5098 15.1082 15.3037 15.5127C14.9841 16.1399 14.4742 16.6498 13.847 16.9694C13.4425 17.1754 13.0119 17.2576 12.5435 17.2959C12.0925 17.3327 11.5389 17.3327 10.8681 17.3327H5.46589C4.79509 17.3327 4.24146 17.3327 3.79047 17.2959C3.32206 17.2576 2.89147 17.1754 2.48703 16.9694C1.85982 16.6498 1.34988 16.1399 1.0303 15.5127C0.824229 15.1082 0.742092 14.6776 0.703821 14.2092C0.666974 13.7582 0.666982 13.2046 0.666993 12.5338V7.1316C0.666982 6.4608 0.666974 5.90716 0.703821 5.45616C0.742092 4.98775 0.824229 4.55716 1.0303 4.15272C1.34988 3.52551 1.85982 3.01557 2.48703 2.69599C2.89147 2.48992 3.32206 2.40778 3.79047 2.36951C4.24147 2.33266 4.7951 2.33267 5.46591 2.33268Z" fill="#A7B4C7"/>
</svg>
