<svg width="4" height="16" viewBox="0 0 4 16" fill="none" xmlns="http://www.w3.org/2000/svg">
<path fill-rule="evenodd" clip-rule="evenodd" d="M0.332031 8C0.332031 7.07952 1.07822 6.33333 1.9987 6.33333C2.91917 6.33333 3.66536 7.07952 3.66536 8C3.66536 8.92047 2.91917 9.66667 1.9987 9.66667C1.07822 9.66667 0.332031 8.92047 0.332031 8Z" fill="#A7B4C7"/>
<path fill-rule="evenodd" clip-rule="evenodd" d="M0.332031 2.16667C0.332031 1.24619 1.07822 0.5 1.9987 0.5C2.91917 0.5 3.66536 1.24619 3.66536 2.16667C3.66536 3.08714 2.91917 3.83333 1.9987 3.83333C1.07822 3.83333 0.332031 3.08714 0.332031 2.16667Z" fill="#A7B4C7"/>
<path fill-rule="evenodd" clip-rule="evenodd" d="M0.332031 13.8333C0.332031 12.9129 1.07822 12.1667 1.9987 12.1667C2.91917 12.1667 3.66536 12.9129 3.66536 13.8333C3.66536 14.7538 2.91917 15.5 1.9987 15.5C1.07822 15.5 0.332031 14.7538 0.332031 13.8333Z" fill="#A7B4C7"/>
</svg>
