<svg width="20" height="20" viewBox="0 0 20 20" fill="none" xmlns="http://www.w3.org/2000/svg">
<path d="M15.588 1.07709C15.2625 0.751649 14.7349 0.751649 14.4094 1.07709C14.084 1.40252 14.084 1.93016 14.4094 2.2556L17.7428 5.58893C18.0682 5.91437 18.5958 5.91437 18.9213 5.58893C19.2467 5.26349 19.2467 4.73586 18.9213 4.41042L15.588 1.07709Z" fill="#A7B4C7"/>
<path d="M12.1124 3.56671C12.3635 3.48514 12.6339 3.48514 12.885 3.56671C13.0788 3.6297 13.2193 3.73432 13.3119 3.8129C13.3918 3.88071 13.4756 3.96456 13.5457 4.03478L15.9635 6.45259C16.0338 6.52275 16.1176 6.60654 16.1854 6.68642C16.264 6.77898 16.3686 6.91948 16.4316 7.11334C16.5132 7.36439 16.5132 7.63483 16.4316 7.88588C16.3686 8.07975 16.264 8.22024 16.1854 8.31281C16.1176 8.39269 16.0337 8.4765 15.9635 8.54667L7.30728 17.2029C7.15171 17.3587 7.01442 17.4961 6.85534 17.612C6.71535 17.714 6.56514 17.8012 6.40713 17.8721C6.22757 17.9528 6.04011 18.0038 5.82769 18.0616L1.88465 19.1369C1.59614 19.2156 1.28759 19.1337 1.07613 18.9222C0.86467 18.7107 0.782729 18.4022 0.861414 18.1137L1.93677 14.1706C1.99456 13.9582 2.04557 13.7708 2.12618 13.5912C2.19712 13.4332 2.28429 13.283 2.38629 13.143C2.50219 12.9839 2.63966 12.8466 2.79542 12.691L11.4517 4.0348C11.5218 3.96458 11.6056 3.88072 11.6855 3.8129C11.7781 3.73432 11.9186 3.6297 12.1124 3.56671Z" fill="#A7B4C7"/>
</svg>
