<svg width="32" height="32" viewBox="0 0 32 32" fill="none" xmlns="http://www.w3.org/2000/svg">
<g clip-path="url(#clip0_3209_17940)" filter="url(#filter0_d_3209_17940)">
<path d="M16.0016 28.7326C22.2976 28.7326 27.4016 23.6287 27.4016 17.3326C27.4016 11.0366 22.2976 5.93262 16.0016 5.93262C9.70552 5.93262 4.60156 11.0366 4.60156 17.3326C4.60156 23.6287 9.70552 28.7326 16.0016 28.7326Z" fill="#DFDFFA"/>
<path d="M16 29.9638C9.03439 29.9638 3.36719 24.2974 3.36719 17.331C3.36719 10.3646 9.03359 4.69824 16 4.69824C22.9664 4.69824 28.6328 10.3646 28.6328 17.331C28.6328 24.2974 22.9664 29.9638 16 29.9638ZM16 7.16384C10.3936 7.16384 5.83279 11.7254 5.83279 17.331C5.83279 22.9366 10.3944 27.4982 16 27.4982C21.6056 27.4982 26.1672 22.9366 26.1672 17.331C26.1672 11.7254 21.6056 7.16384 16 7.16384Z" fill="#6B6BE1"/>
<path d="M27.0043 8.36368C27.7107 8.85808 28.7211 8.51489 28.9387 7.68049C29.4307 5.79569 28.7371 3.72048 27.0475 2.53808C25.3579 1.35488 23.1715 1.41248 21.5683 2.51968C20.8587 3.01008 20.8811 4.07649 21.5883 4.57169L27.0043 8.36368Z" fill="#6B6BE1"/>
<path d="M4.99552 8.36368C4.28911 8.85808 3.27871 8.51489 3.06111 7.68049C2.56911 5.79569 3.26271 3.72048 4.95232 2.53808C6.64192 1.35488 8.82832 1.41248 10.4315 2.51968C11.1411 3.01008 11.1187 4.07649 10.4115 4.57169L4.99552 8.36368Z" fill="#6B6BE1"/>
<path d="M15.9993 18.5652H11.2953C10.6145 18.5652 10.0625 18.0132 10.0625 17.3324C10.0625 16.6516 10.6145 16.0996 11.2953 16.0996H15.9993C16.6801 16.0996 17.2321 16.6516 17.2321 17.3324C17.2321 18.0132 16.6801 18.5652 15.9993 18.5652Z" fill="#6B6BE1"/>
<path d="M16.0023 18.5641C15.3215 18.5641 14.7695 18.0121 14.7695 17.3313V10.5873C14.7695 9.90649 15.3215 9.35449 16.0023 9.35449C16.6831 9.35449 17.2351 9.90649 17.2351 10.5873V17.3313C17.2351 18.0121 16.6831 18.5641 16.0023 18.5641Z" fill="#4B4B9E"/>
</g>
<defs>
<filter id="filter0_d_3209_17940" x="-5.33333" y="0" width="42.6667" height="42.6667" filterUnits="userSpaceOnUse" color-interpolation-filters="sRGB">
<feFlood flood-opacity="0" result="BackgroundImageFix"/>
<feColorMatrix in="SourceAlpha" type="matrix" values="0 0 0 0 0 0 0 0 0 0 0 0 0 0 0 0 0 0 127 0" result="hardAlpha"/>
<feOffset dy="5.33333"/>
<feGaussianBlur stdDeviation="2.66667"/>
<feComposite in2="hardAlpha" operator="out"/>
<feColorMatrix type="matrix" values="0 0 0 0 0 0 0 0 0 0 0 0 0 0 0 0 0 0 0.25 0"/>
<feBlend mode="normal" in2="BackgroundImageFix" result="effect1_dropShadow_3209_17940"/>
<feBlend mode="normal" in="SourceGraphic" in2="effect1_dropShadow_3209_17940" result="shape"/>
</filter>
<clipPath id="clip0_3209_17940">
<rect width="32" height="32" fill="white"/>
</clipPath>
</defs>
</svg>
