<svg width="20" height="20" viewBox="0 0 20 20" fill="none" xmlns="http://www.w3.org/2000/svg">
<path fill-rule="evenodd" clip-rule="evenodd" d="M1.41995 16.3031C3.39291 13.692 6.50068 12 10.0018 12C13.5029 12 16.6107 13.692 18.5837 16.3031C18.5926 16.3149 18.6015 16.3268 18.6105 16.3386C18.7802 16.563 18.9621 16.8035 19.092 17.0356C19.2494 17.3165 19.366 17.6414 19.3588 18.0366C19.353 18.3542 19.2567 18.6516 19.1398 18.8864C19.023 19.1212 18.8437 19.3772 18.5938 19.5734C18.2605 19.835 17.8976 19.9276 17.5752 19.9662C17.2923 20.0001 16.9571 20.0001 16.6201 20C16.6049 20 16.5898 20 16.5746 20H3.42904C3.41385 20 3.39866 20 3.38348 20C3.04648 20.0001 2.71129 20.0001 2.42845 19.9662C2.10606 19.9276 1.74315 19.835 1.40983 19.5734C1.15988 19.3772 0.980656 19.1212 0.86378 18.8864C0.746904 18.6516 0.650659 18.3542 0.64485 18.0366C0.637623 17.6414 0.754231 17.3165 0.911566 17.0356C1.04155 16.8035 1.22345 16.563 1.39308 16.3386C1.40208 16.3268 1.41104 16.3149 1.41995 16.3031Z" fill="#A7B4C7"/>
<path fill-rule="evenodd" clip-rule="evenodd" d="M4.50181 5.5C4.50181 2.46243 6.96424 0 10.0018 0C13.0394 0 15.5018 2.46243 15.5018 5.5C15.5018 8.53757 13.0394 11 10.0018 11C6.96424 11 4.50181 8.53757 4.50181 5.5Z" fill="#A7B4C7"/>
</svg>
