<svg width="54" height="21" viewBox="0 0 54 21" fill="none" xmlns="http://www.w3.org/2000/svg">
<g clip-path="url(#clip0_3473_22513)">
<path d="M44.0345 20.3493C43.6731 20.3493 43.4035 20.0166 43.4784 19.663L46.8628 3.69649H45.2911C44.9285 3.69649 44.6587 3.36162 44.7357 3.00733L45.2002 0.870523C45.257 0.609227 45.4882 0.422852 45.7556 0.422852H53.421C53.7816 0.422852 54.0511 0.754366 53.9775 1.1074L53.5315 3.2442C53.4765 3.5077 53.2442 3.69649 52.9751 3.69649H50.4496L47.0152 19.8988C46.9596 20.1615 46.7277 20.3493 46.4592 20.3493H44.0345Z" fill="url(#paint0_linear_3473_22513)"/>
<path d="M31.9637 20.3493C31.6021 20.3493 31.3324 20.0162 31.4077 19.6626L35.4072 0.872931C35.4631 0.610487 35.6948 0.422852 35.9632 0.422852H40.4847C43.0751 0.422852 44.4415 2.01698 43.9575 4.43662L43.0181 8.84892C42.7335 10.1584 41.9649 11.2401 40.8832 11.9233L40.9362 19.7771C40.9384 20.0925 40.6833 20.3493 40.3678 20.3493H37.9019C37.5846 20.3493 37.3288 20.0897 37.3335 19.7724L37.4387 12.7489H36.4424L34.943 19.8977C34.8878 20.1609 34.6556 20.3493 34.3868 20.3493H31.9637ZM39.4598 3.69649H38.3781L37.0971 9.67445H38.1788C38.8337 9.67445 39.346 9.27592 39.4598 8.62119L40.3138 4.74975C40.4277 4.09502 40.0861 3.69649 39.4598 3.69649Z" fill="url(#paint1_linear_3473_22513)"/>
<path d="M24.917 20.691C22.1273 20.691 20.6471 18.9545 21.188 16.364L24.5077 0.872174C24.5638 0.610091 24.7954 0.422852 25.0635 0.422852H27.4876C27.8494 0.422852 28.1192 0.756525 28.0434 1.11037L24.7747 16.364C24.6324 17.0187 24.974 17.4173 25.6287 17.4173C26.255 17.4173 26.7674 17.0187 26.9097 16.364L30.2294 0.872174C30.2856 0.610091 30.5171 0.422852 30.7852 0.422852H33.2093C33.5711 0.422852 33.8409 0.756525 33.7651 1.11037L30.4964 16.364C29.9556 18.9545 27.7067 20.691 24.917 20.691Z" fill="url(#paint2_linear_3473_22513)"/>
<path d="M10.6419 20.3493C10.2803 20.3493 10.0106 20.0162 10.0859 19.6626L14.0854 0.872931C14.1413 0.610487 14.3731 0.422852 14.6414 0.422852H19.0489C21.7248 0.422852 23.1197 2.07391 22.6073 4.52202L21.6109 9.21899C21.0986 11.6671 18.9636 13.3182 16.3162 13.3182H15.0068L13.6215 19.898C13.5662 20.1611 13.334 20.3493 13.0653 20.3493H10.6419ZM18.1381 3.69649H17.0564L15.7185 10.0445H16.7717C17.4264 10.0445 17.9388 9.64598 18.0812 8.99125L18.9921 4.74975C19.1059 4.09502 18.7643 3.69649 18.1381 3.69649Z" fill="url(#paint3_linear_3473_22513)"/>
<path d="M3.83942 20.6908C1.04971 20.6908 -0.430541 18.9544 0.110322 16.3638L0.641226 13.8541C0.696813 13.5913 0.928748 13.4034 1.19735 13.4034H3.62212C3.98338 13.4034 4.25299 13.7359 4.17822 14.0894L3.69709 16.3638C3.55476 17.0185 3.89636 17.4171 4.55109 17.4171C5.17735 17.4171 5.68975 17.0185 5.83208 16.3638L6.34448 14.0581C6.85686 11.6954 1.24898 11.3538 2.21684 6.77066L2.72924 4.37949C3.27009 1.78904 5.46201 0.0810547 8.22326 0.0810547C10.9845 0.0810547 12.4932 1.78904 11.9239 4.37949L11.4511 6.57796C11.3948 6.83984 11.1633 7.02686 10.8954 7.02686H8.47722C8.11331 7.02686 7.84313 6.68966 7.92247 6.33451L8.36559 4.35102C8.45099 3.75322 8.13786 3.35469 7.54006 3.35469C6.9138 3.35469 6.42988 3.72476 6.31601 4.35102L5.88901 6.34368C5.40508 8.73485 10.9845 9.04799 10.0166 13.6311L9.41885 16.3638C8.87799 18.9544 6.62914 20.6908 3.83942 20.6908Z" fill="url(#paint4_linear_3473_22513)"/>
</g>
<defs>
<linearGradient id="paint0_linear_3473_22513" x1="53.6076" y1="20.5196" x2="43.6114" y2="20.6562" gradientUnits="userSpaceOnUse">
<stop stop-color="#DDD9F8"/>
<stop offset="0.273644" stop-color="#E4E4FF"/>
<stop offset="0.610199" stop-color="#CCE4FF"/>
</linearGradient>
<linearGradient id="paint1_linear_3473_22513" x1="43.5943" y1="20.5196" x2="31.5712" y2="20.7172" gradientUnits="userSpaceOnUse">
<stop stop-color="#DDD9F8"/>
<stop offset="0.273644" stop-color="#E4E4FF"/>
<stop offset="0.610199" stop-color="#CCE4FF"/>
</linearGradient>
<linearGradient id="paint2_linear_3473_22513" x1="33.3169" y1="20.8641" x2="21.2543" y2="21.0597" gradientUnits="userSpaceOnUse">
<stop stop-color="#DDD9F8"/>
<stop offset="0.273644" stop-color="#E4E4FF"/>
<stop offset="0.610199" stop-color="#CCE4FF"/>
</linearGradient>
<linearGradient id="paint3_linear_3473_22513" x1="22.2533" y1="20.5196" x2="10.2491" y2="20.7166" gradientUnits="userSpaceOnUse">
<stop stop-color="#DDD9F8"/>
<stop offset="0.273644" stop-color="#E4E4FF"/>
<stop offset="0.610199" stop-color="#CCE4FF"/>
</linearGradient>
<linearGradient id="paint4_linear_3473_22513" x1="11.6059" y1="20.8669" x2="0.167131" y2="21.0398" gradientUnits="userSpaceOnUse">
<stop stop-color="#DDD9F8"/>
<stop offset="0.273644" stop-color="#E4E4FF"/>
<stop offset="0.610199" stop-color="#CCE4FF"/>
</linearGradient>
<clipPath id="clip0_3473_22513">
<rect width="54" height="20.6905" fill="white"/>
</clipPath>
</defs>
</svg>
