<svg width="18" height="20" viewBox="0 0 18 20" fill="none" xmlns="http://www.w3.org/2000/svg">
<path fill-rule="evenodd" clip-rule="evenodd" d="M8.30252 0.833008H9.70009C10.1394 0.832995 10.5184 0.832983 10.8305 0.858485C11.1599 0.885403 11.4876 0.944833 11.8029 1.10549C12.2734 1.34518 12.6558 1.72763 12.8955 2.19803C13.0561 2.51335 13.1156 2.84103 13.1425 3.17049C13.1654 3.4503 13.1677 3.78381 13.1679 4.16634H16.5013C16.9615 4.16634 17.3346 4.53944 17.3346 4.99968C17.3346 5.45991 16.9615 5.83301 16.5013 5.83301H15.668V14.3674C15.668 15.0382 15.668 15.5919 15.6311 16.0429C15.5929 16.5113 15.5107 16.9419 15.3047 17.3463C14.9851 17.9735 14.4751 18.4835 13.8479 18.803C13.4435 19.0091 13.0129 19.0912 12.5445 19.1295C12.0935 19.1664 11.5399 19.1664 10.8691 19.1663H7.13353C6.46273 19.1664 5.90911 19.1664 5.45811 19.1295C4.9897 19.0912 4.55911 19.0091 4.15467 18.803C3.52746 18.4835 3.01753 17.9735 2.69795 17.3463C2.49187 16.9419 2.40974 16.5113 2.37146 16.0429C2.33462 15.5919 2.33463 15.0382 2.33464 14.3674L2.33464 5.83301H1.5013C1.04106 5.83301 0.667969 5.45991 0.667969 4.99968C0.667969 4.53944 1.04106 4.16634 1.5013 4.16634H4.83466C4.83489 3.78381 4.83725 3.4503 4.86011 3.17049C4.88703 2.84103 4.94646 2.51335 5.10712 2.19803C5.3468 1.72763 5.72926 1.34518 6.19966 1.10549C6.51498 0.944833 6.84266 0.885403 7.17211 0.858485C7.48424 0.832983 7.86325 0.832995 8.30252 0.833008ZM7.33464 8.74968C7.79487 8.74968 8.16797 9.12277 8.16797 9.58301V13.7497C8.16797 14.2099 7.79487 14.583 7.33464 14.583C6.8744 14.583 6.5013 14.2099 6.5013 13.7497V9.58301C6.5013 9.12277 6.8744 8.74968 7.33464 8.74968ZM11.5013 9.58301C11.5013 9.12277 11.1282 8.74968 10.668 8.74968C10.2077 8.74968 9.83463 9.12277 9.83463 9.58301V13.7497C9.83463 14.2099 10.2077 14.583 10.668 14.583C11.1282 14.583 11.5013 14.2099 11.5013 13.7497V9.58301Z" fill="#E9838F"/>
</svg>
