<svg width="81" height="80" viewBox="0 0 81 80" fill="none" xmlns="http://www.w3.org/2000/svg">
<g clip-path="url(#clip0_2318_23473)">
<path d="M72.1897 65.7301L71.7537 64.4341C67.4617 55.0961 47.0297 38.9941 47.0297 38.9941H35.3117C35.3117 38.9941 12.0217 52.2861 9.91567 66.1381L9.87567 66.3961C9.29367 70.8681 12.8037 74.8381 17.4957 74.8381H64.5917C66.7477 74.8381 68.6577 74.0081 70.0477 72.6901H70.0737L70.0797 72.6641C71.8857 70.9341 72.7997 68.3721 72.1917 65.7321L72.1897 65.7301Z" fill="#6B6BE1"/>
<path d="M40.6239 44.0106C49.7576 44.0106 57.1619 36.6063 57.1619 27.4726C57.1619 18.3389 49.7576 10.9346 40.6239 10.9346C31.4903 10.9346 24.0859 18.3389 24.0859 27.4726C24.0859 36.6063 31.4903 44.0106 40.6239 44.0106Z" fill="#FDF3F4"/>
<path d="M25.5302 34.1466C29.1863 34.1466 32.1502 31.3663 32.1502 27.9366C32.1502 24.5069 29.1863 21.7266 25.5302 21.7266C21.874 21.7266 18.9102 24.5069 18.9102 27.9366C18.9102 31.3663 21.874 34.1466 25.5302 34.1466Z" fill="#FDF3F4"/>
<path d="M55.7177 34.1466C59.3738 34.1466 62.3377 31.3663 62.3377 27.9366C62.3377 24.5069 59.3738 21.7266 55.7177 21.7266C52.0615 21.7266 49.0977 24.5069 49.0977 27.9366C49.0977 31.3663 52.0615 34.1466 55.7177 34.1466Z" fill="#FDF3F4"/>
<path d="M59.3251 22.7302C59.493 11.3742 49.7231 2.10423 38.1531 3.34623C29.2551 4.30223 22.1291 11.5342 21.2911 20.4442C21.2051 21.3502 21.183 22.2462 21.221 23.1262C21.221 23.1262 22.8371 22.7402 24.2751 25.8622L35.185 13.6542C35.185 13.6542 48.429 24.2902 57.171 23.7102C57.363 23.6982 57.585 23.6302 57.805 23.5362C58.3871 23.2082 58.877 22.6002 59.3251 22.7302Z" fill="url(#paint0_linear_2318_23473)"/>
<path d="M35.9748 28.7845C36.9469 28.7845 37.7348 27.839 37.7348 26.6725C37.7348 25.5061 36.9469 24.5605 35.9748 24.5605C35.0028 24.5605 34.2148 25.5061 34.2148 26.6725C34.2148 27.839 35.0028 28.7845 35.9748 28.7845Z" fill="black"/>
<path d="M45.2678 28.7845C46.2398 28.7845 47.0278 27.839 47.0278 26.6725C47.0278 25.5061 46.2398 24.5605 45.2678 24.5605C44.2958 24.5605 43.5078 25.5061 43.5078 26.6725C43.5078 27.839 44.2958 28.7845 45.2678 28.7845Z" fill="black"/>
<path d="M39.4833 37.4182C39.2113 37.4182 39.0173 37.1562 39.0893 36.8942C39.3193 36.0602 40.0833 35.4482 40.9893 35.4482C41.8953 35.4482 42.6593 36.0602 42.8893 36.8942C42.9613 37.1562 42.7673 37.4182 42.4953 37.4182H39.4833Z" fill="#E9838F"/>
<path d="M36.8267 39.1446L36.8047 45.9946C36.8047 46.2286 36.9287 46.4366 37.1407 46.5386C38.1707 47.0346 41.4267 48.3046 44.8827 46.5466C45.0887 46.4406 45.2247 46.2166 45.2247 45.9846L45.2467 39.1426H36.8287L36.8267 39.1446Z" fill="#FDF3F4"/>
<path d="M55.7148 40.0322L69.3488 26.0741C70.4608 24.9361 72.2288 24.7581 73.5448 25.6541C74.8948 26.5721 75.3648 28.3441 74.6488 29.8101L69.5908 41.5361C68.7328 43.5241 66.9208 44.9361 64.7828 45.2822L58.0928 46.3621L55.7168 40.0341L55.7148 40.0322Z" fill="#FDF3F4"/>
<path d="M26.2203 40.0322L12.5863 26.0741C11.4743 24.9361 9.70627 24.7581 8.39027 25.6541C7.04027 26.5721 6.57027 28.3441 7.28627 29.8101L12.3443 41.5361C13.2023 43.5241 15.0143 44.9361 17.1523 45.2822L23.8423 46.3621L26.2183 40.0341L26.2203 40.0322Z" fill="#FDF3F4"/>
<path d="M11.0837 71.4605C13.4317 74.9105 18.2477 75.8785 21.8397 73.6225L64.8697 47.6485C64.8697 47.6485 56.7017 35.7965 56.6697 35.8145L13.3357 61.1305C9.7437 63.3865 8.7357 68.0105 11.0837 71.4605Z" fill="#414189"/>
<path d="M71.1141 71.4605C68.7661 74.9105 63.9501 75.8785 60.3581 73.6225L17.3281 47.6485C17.3281 47.6485 25.4961 35.7965 25.5281 35.8145L68.8621 61.1305C72.4541 63.3865 73.4621 68.0105 71.1141 71.4605Z" fill="#414189"/>
</g>
<defs>
<linearGradient id="paint0_linear_2318_23473" x1="57.9431" y1="26.0556" x2="21.7926" y2="27.6311" gradientUnits="userSpaceOnUse">
<stop stop-color="#DDD9F8"/>
<stop offset="0.273644" stop-color="#E4E4FF"/>
<stop offset="0.610199" stop-color="#CCE4FF"/>
</linearGradient>
<clipPath id="clip0_2318_23473">
<rect width="80" height="80" fill="white" transform="translate(0.5)"/>
</clipPath>
</defs>
</svg>
