<svg width="19" height="18" viewBox="0 0 19 18" fill="none" xmlns="http://www.w3.org/2000/svg">
<path d="M12.0606 5.72513C11.4199 5.74398 10.9111 6.34695 10.9394 7.08182L10.9677 8.08991L5.8801 3.00234C5.4844 2.60664 4.84374 2.60664 4.44804 3.00234C4.05234 3.39804 4.05234 4.0387 4.44804 4.4344L7.63248 7.61884L7.88686 7.87322C7.98108 7.96743 7.98108 8.13702 7.88686 8.23123C7.79265 8.32545 7.62306 8.32545 7.52885 8.23123L7.08604 7.78843L3.32689 4.02928C2.94061 3.643 2.30938 3.643 1.9231 4.02928L1.89484 4.05754C1.50856 4.44382 1.50856 5.07506 1.89484 5.46133L5.42787 8.99437L6.09679 9.66329C6.19101 9.7575 6.19101 9.92709 6.09679 10.0213C6.00258 10.1155 5.83299 10.1155 5.73878 10.0213L5.06986 9.35238L2.36591 6.64843C1.97963 6.26215 1.33897 6.26215 0.952693 6.64843L0.93385 6.66728C0.547571 7.05355 0.547571 7.69421 0.93385 8.08049L3.86391 11.0106L4.30672 11.4534C4.40093 11.5476 4.40093 11.7172 4.30672 11.8114C4.21251 11.9056 4.04292 11.9056 3.94871 11.8114L3.69433 11.557L2.13037 9.99304C1.75351 9.61618 1.14112 9.61618 0.764264 9.99304L0.688893 10.0684C0.312036 10.4453 0.312036 11.0577 0.688893 11.4345C0.688893 11.4345 3.10078 13.8276 5.57861 16.3054C7.40637 18.1332 10.8169 17.8128 12.786 15.8437L12.8331 15.7966C13.6622 14.9676 14.0579 13.8747 14.0296 12.7818C14.0296 12.5651 14.0296 12.3484 14.0014 12.1411L13.2665 7.02529C13.2477 6.29042 12.7106 5.71571 12.07 5.73456L12.0606 5.72513Z" fill="#6B6BE1"/>
<path d="M14.1055 5.72513C13.4648 5.74398 12.9561 6.34695 12.9843 7.08182L13.0126 8.08991L7.92502 3.00234C7.52932 2.60664 6.88866 2.60664 6.49296 3.00234C6.09726 3.39804 6.09726 4.0387 6.49296 4.4344L9.67741 7.61884L9.93178 7.87322C10.026 7.96743 10.026 8.13702 9.93178 8.23123C9.83757 8.32545 9.66798 8.32545 9.57377 8.23123L9.13096 7.78843L5.37181 4.02928C4.98554 3.643 4.3543 3.643 3.96802 4.02928L3.93976 4.05754C3.55348 4.44382 3.55348 5.07506 3.93976 5.46133L7.47279 8.99437L8.14171 9.66329C8.23593 9.7575 8.23593 9.92709 8.14171 10.0213C8.0475 10.1155 7.87791 10.1155 7.7837 10.0213L7.11478 9.35238L4.41083 6.64843C4.02455 6.26215 3.38389 6.26215 2.99761 6.64843L2.97877 6.66728C2.59249 7.05355 2.59249 7.69421 2.97877 8.08049L5.90884 11.0106L6.35164 11.4534C6.44586 11.5476 6.44586 11.7172 6.35164 11.8114C6.25743 11.9056 6.08784 11.9056 5.99363 11.8114L5.73925 11.557L4.17529 9.99304C3.79844 9.61618 3.18604 9.61618 2.80919 9.99304L2.73381 10.0684C2.35696 10.4453 2.35696 11.0577 2.73381 11.4345C2.73381 11.4345 5.1457 13.8276 7.62354 16.3054C9.45129 18.1332 12.8618 17.8128 14.8309 15.8437L14.878 15.7966C15.7071 14.9676 16.1028 13.8747 16.0746 12.7818C16.0746 12.5651 16.0746 12.3484 16.0463 12.1411L15.3114 7.02529C15.2926 6.29042 14.7556 5.71571 14.1149 5.73456L14.1055 5.72513Z" fill="url(#paint0_linear_4030_45471)"/>
<path fill-rule="evenodd" clip-rule="evenodd" d="M15.3801 1.06931C15.7297 1.24267 15.8726 1.66663 15.6993 2.01626L14.5781 4.2774C14.4047 4.62703 13.9808 4.76993 13.6312 4.59657C13.2815 4.42321 13.1386 3.99925 13.312 3.64962L14.4331 1.38848C14.6065 1.03885 15.0305 0.895951 15.3801 1.06931Z" fill="#8484E6"/>
<path fill-rule="evenodd" clip-rule="evenodd" d="M18.1526 3.62984C18.3682 3.95515 18.2792 4.39362 17.9539 4.60918L16.39 5.64554C16.0647 5.8611 15.6262 5.77214 15.4106 5.44683C15.1951 5.12152 15.284 4.68306 15.6093 4.46749L17.1733 3.43114C17.4986 3.21557 17.9371 3.30454 18.1526 3.62984Z" fill="#8484E6"/>
<path fill-rule="evenodd" clip-rule="evenodd" d="M11.6667 0.403857C12.0561 0.378545 12.3923 0.673718 12.4176 1.06314L12.5401 2.94743C12.5654 3.33686 12.2702 3.67307 11.8808 3.69838C11.4914 3.72369 11.1552 3.42852 11.1299 3.03909L11.0074 1.15481C10.9821 0.765382 11.2772 0.42917 11.6667 0.403857Z" fill="#8484E6"/>
<defs>
<linearGradient id="paint0_linear_4030_45471" x1="15.5813" y1="17.6399" x2="2.64463" y2="17.9479" gradientUnits="userSpaceOnUse">
<stop stop-color="#DDD9F8"/>
<stop offset="0.273644" stop-color="#E4E4FF"/>
<stop offset="0.610199" stop-color="#CCE4FF"/>
</linearGradient>
</defs>
</svg>
