<svg width="20" height="20" viewBox="0 0 20 20" fill="none" xmlns="http://www.w3.org/2000/svg">
<path d="M10.0033 18.2748C14.3295 18.2748 17.8366 14.8273 17.8366 10.5748C17.8366 6.32216 14.3295 2.87476 10.0033 2.87476C5.67703 2.87476 2.16992 6.32216 2.16992 10.5748C2.16992 14.8273 5.67703 18.2748 10.0033 18.2748Z" fill="#6B6BE1"/>
<path d="M10.002 16.5998C13.3847 16.5998 16.127 13.9023 16.127 10.5748C16.127 7.24729 13.3847 4.5498 10.002 4.5498C6.61921 4.5498 3.87695 7.24729 3.87695 10.5748C3.87695 13.9023 6.61921 16.5998 10.002 16.5998Z" fill="#DFDFFA"/>
<path d="M10.8346 7.24154C10.8346 6.7813 10.4615 6.4082 10.0013 6.4082C9.54106 6.4082 9.16797 6.7813 9.16797 7.24154V10.5749C9.16797 11.0351 9.54106 11.4082 10.0013 11.4082C10.4615 11.4082 10.8346 11.0351 10.8346 10.5749V7.24154Z" fill="#4B4B9E"/>
<path d="M13.3092 11.4081C13.7695 11.4081 14.1426 11.035 14.1426 10.5748C14.1426 10.1146 13.7695 9.74146 13.3092 9.74146H9.97591C9.51567 9.74146 9.14258 10.1146 9.14258 10.5748C9.14258 11.035 9.51567 11.4081 9.97591 11.4081H13.3092Z" fill="#8484E6"/>
<path d="M2.50204 2.56645C1.66038 3.40812 1.45204 4.64979 1.89371 5.68312C2.11037 6.19145 2.80204 6.29145 3.1937 5.89979L5.83538 3.25812C6.22704 2.86645 6.12704 2.17479 5.61871 1.95812C4.58537 1.52479 3.34371 1.72479 2.50204 2.56645Z" fill="#6B6BE1"/>
<path d="M17.5006 2.56649C16.659 1.72483 15.4173 1.51649 14.384 1.95816C13.8756 2.17483 13.7756 2.86649 14.1673 3.25816L16.809 5.89983C17.2006 6.29149 17.8923 6.19149 18.109 5.68316C18.5423 4.64983 18.3423 3.40816 17.5006 2.56649Z" fill="#6B6BE1"/>
</svg>
