<svg width="143" height="80" viewBox="0 0 143 80" fill="none" xmlns="http://www.w3.org/2000/svg">
<rect x="126.376" y="65.2783" width="11.4336" height="11.4336" rx="2.14381" transform="rotate(-45 126.376 65.2783)" fill="#F2F2E9"/>
<rect x="14.2043" y="48.7705" width="10.7367" height="10.7367" rx="1.8317" transform="rotate(-45 14.2043 48.7705)" fill="#CAB5E3"/>
<rect x="116.212" y="36.5986" width="7.37614" height="7.37614" rx="1.38303" transform="rotate(-45 116.212 36.5986)" fill="#CAB5E3"/>
<rect x="129.376" y="23.3018" width="7.37614" height="7.37614" rx="1.38303" transform="rotate(-45 129.376 23.3018)" fill="#D8F1EB"/>
<rect x="0.454346" y="74.3408" width="8.00257" height="8.00257" rx="1.36526" transform="rotate(-45 0.454346 74.3408)" fill="#D8F1EB"/>
<g clip-path="url(#clip0_3333_34996)">
<path d="M93.896 22.1399C94.714 27.5979 95.664 30.722 91.76 30.722C86.448 30.722 86.446 18.15 77.456 10.9879C68.562 3.90395 61.928 5.62595 61.788 5.66395C61.786 5.66595 61.782 5.66995 61.78 5.67195C69.188 11.8559 65.056 22.02 60.208 24.822C55.556 27.51 50.246 24.1199 53.026 16.1419C46.912 24.5019 41.634 34.632 41.634 44.726C41.634 61.196 54.986 74.5479 71.456 74.5479C87.926 74.5479 101.278 61.196 101.278 44.726C101.278 36.944 98.134 29.1399 93.896 22.1399Z" fill="url(#paint0_linear_3333_34996)"/>
<path d="M71.4595 40.0371C71.4595 40.0371 84.4275 47.5051 84.4275 57.9391C84.4275 65.1011 78.6215 70.9071 71.4595 70.9071C64.2975 70.9071 58.4915 65.1011 58.4915 57.9391C58.4915 47.5051 71.4595 40.0371 71.4595 40.0371Z" fill="#A9A9EE"/>
</g>
<defs>
<linearGradient id="paint0_linear_3333_34996" x1="99.1127" y1="75.1383" x2="42.4771" y2="76.403" gradientUnits="userSpaceOnUse">
<stop stop-color="#DDD9F8"/>
<stop offset="0.273644" stop-color="#E4E4FF"/>
<stop offset="0.610199" stop-color="#CCE4FF"/>
</linearGradient>
<clipPath id="clip0_3333_34996">
<rect width="80" height="80" fill="white" transform="translate(31.4543)"/>
</clipPath>
</defs>
</svg>
