<svg width="61" height="60" viewBox="0 0 61 60" fill="none" xmlns="http://www.w3.org/2000/svg">
<path d="M38.675 20.4998C36.975 20.5498 35.625 22.1498 35.7 24.0998L35.775 26.7748L22.275 13.2748C21.225 12.2248 19.525 12.2248 18.475 13.2748C17.425 14.3248 17.425 16.0248 18.475 17.0748L26.925 25.5248L27.6 26.1998C27.85 26.4498 27.85 26.8998 27.6 27.1498C27.35 27.3998 26.9 27.3998 26.65 27.1498L25.475 25.9748L15.5 15.9998C14.475 14.9748 12.8 14.9748 11.775 15.9998L11.7 16.0748C10.675 17.0998 10.675 18.7748 11.7 19.7998L21.075 29.1748L22.85 30.9498C23.1 31.1998 23.1 31.6498 22.85 31.8998C22.6 32.1498 22.15 32.1498 21.9 31.8998L20.125 30.1248L12.95 22.9498C11.925 21.9248 10.225 21.9248 9.2 22.9498L9.15 22.9998C8.125 24.0248 8.125 25.7248 9.15 26.7498L16.925 34.5248L18.1 35.6998C18.35 35.9498 18.35 36.3998 18.1 36.6498C17.85 36.8998 17.4 36.8998 17.15 36.6498L16.475 35.9748L12.325 31.8248C11.325 30.8248 9.7 30.8248 8.7 31.8248L8.5 32.0248C7.5 33.0248 7.5 34.6498 8.5 35.6498C8.5 35.6498 14.9 41.9998 21.475 48.5748C26.325 53.4248 35.375 52.5748 40.6 47.3498L40.725 47.2248C42.925 45.0248 43.975 42.1248 43.9 39.2248C43.9 38.6498 43.9 38.0748 43.825 37.5248L41.875 23.9498C41.825 21.9998 40.4 20.4748 38.7 20.5248L38.675 20.4998Z" fill="#6B6BE1"/>
<path d="M44.1008 20.4998C42.4008 20.5498 41.0508 22.1498 41.1258 24.0998L41.2008 26.7748L27.7008 13.2748C26.6508 12.2248 24.9508 12.2248 23.9008 13.2748C22.8508 14.3248 22.8508 16.0248 23.9008 17.0748L32.3508 25.5248L33.0258 26.1998C33.2758 26.4498 33.2758 26.8998 33.0258 27.1498C32.7758 27.3998 32.3258 27.3998 32.0758 27.1498L30.9008 25.9748L20.9258 15.9998C19.9008 14.9748 18.2258 14.9748 17.2008 15.9998L17.1258 16.0748C16.1008 17.0998 16.1008 18.7748 17.1258 19.7998L26.5008 29.1748L28.2758 30.9498C28.5258 31.1998 28.5258 31.6498 28.2758 31.8998C28.0258 32.1498 27.5758 32.1498 27.3258 31.8998L25.5508 30.1248L18.3758 22.9498C17.3508 21.9248 15.6508 21.9248 14.6258 22.9498L14.5758 22.9998C13.5508 24.0248 13.5508 25.7248 14.5758 26.7498L22.3508 34.5248L23.5258 35.6998C23.7758 35.9498 23.7758 36.3998 23.5258 36.6498C23.2758 36.8998 22.8258 36.8998 22.5758 36.6498L21.9008 35.9748L17.7508 31.8248C16.7508 30.8248 15.1258 30.8248 14.1258 31.8248L13.9258 32.0248C12.9258 33.0248 12.9258 34.6498 13.9258 35.6498C13.9258 35.6498 20.3258 41.9998 26.9008 48.5748C31.7508 53.4248 40.8008 52.5748 46.0258 47.3498L46.1508 47.2248C48.3508 45.0248 49.4008 42.1248 49.3258 39.2248C49.3258 38.6498 49.3258 38.0748 49.2508 37.5248L47.3008 23.9498C47.2508 21.9998 45.8258 20.4748 44.1258 20.5248L44.1008 20.4998Z" fill="url(#paint0_linear_5299_41802)"/>
<path fill-rule="evenodd" clip-rule="evenodd" d="M47.4802 8.14479C48.408 8.6048 48.7871 9.7298 48.3271 10.6576L45.3521 16.6576C44.8921 17.5853 43.7671 17.9645 42.8394 17.5045C41.9116 17.0445 41.5324 15.9195 41.9924 14.9917L44.9675 8.99171C45.4275 8.06396 46.5525 7.68478 47.4802 8.14479Z" fill="#8484E6"/>
<path fill-rule="evenodd" clip-rule="evenodd" d="M54.8382 14.9391C55.4102 15.8023 55.1741 16.9658 54.3109 17.5378L50.1609 20.2878C49.2977 20.8598 48.1342 20.6237 47.5622 19.7605C46.9902 18.8973 47.2263 17.7338 48.0895 17.1618L52.2395 14.4118C53.1027 13.8398 54.2662 14.0759 54.8382 14.9391Z" fill="#8484E6"/>
<path fill-rule="evenodd" clip-rule="evenodd" d="M37.6285 6.37902C38.6618 6.31185 39.554 7.0951 39.6211 8.12845L39.9461 13.1285C40.0133 14.1618 39.23 15.054 38.1967 15.1211C37.1633 15.1883 36.2712 14.405 36.204 13.3717L35.879 8.37169C35.8118 7.33833 36.5951 6.44618 37.6285 6.37902Z" fill="#8484E6"/>
<defs>
<linearGradient id="paint0_linear_5299_41802" x1="48.017" y1="52.1161" x2="13.6891" y2="52.9331" gradientUnits="userSpaceOnUse">
<stop stop-color="#DDD9F8"/>
<stop offset="0.273644" stop-color="#E4E4FF"/>
<stop offset="0.610199" stop-color="#CCE4FF"/>
</linearGradient>
</defs>
</svg>
