<svg width="12" height="12" viewBox="0 0 12 12" fill="none" xmlns="http://www.w3.org/2000/svg">
<path d="M6.14745 0.784668C8.39911 0.784668 10.2249 2.6105 10.2249 4.86217V9.12634H2.06995V4.86217C2.06995 2.6105 3.89578 0.784668 6.14745 0.784668Z" fill="#DE3A4D"/>
<path d="M10.4463 9.12646H1.69629C1.21304 9.12646 0.821289 9.51822 0.821289 10.0015V10.4856C0.821289 10.9689 1.21304 11.3606 1.69629 11.3606H10.4463C10.9295 11.3606 11.3213 10.9689 11.3213 10.4856V10.0015C11.3213 9.51822 10.9295 9.12646 10.4463 9.12646Z" fill="#4B4B9E"/>
<path fill-rule="evenodd" clip-rule="evenodd" d="M3.69688 2.96348C4.12088 2.47304 4.73451 2.06836 5.41252 2.06836C5.65415 2.06836 5.85002 2.26423 5.85002 2.50586C5.85002 2.74748 5.65415 2.94336 5.41252 2.94336C5.08137 2.94336 4.68875 3.15409 4.3588 3.53574C4.03177 3.914 3.83752 4.38063 3.83752 4.76336C3.83752 5.00498 3.64165 5.20086 3.40002 5.20086C3.1584 5.20086 2.96252 5.00498 2.96252 4.76336C2.96252 4.11942 3.26995 3.4573 3.69688 2.96348Z" fill="#DD6875"/>
<path d="M6.14676 3.89941C7.09176 3.89941 7.86176 4.66941 7.86176 5.61441V9.12608H4.43176V5.61441C4.43176 4.66941 5.20176 3.89941 6.14676 3.89941Z" fill="#ED98A2"/>
</svg>
