<svg width="13" height="13" viewBox="0 0 13 13" fill="none" xmlns="http://www.w3.org/2000/svg">
<path d="M6.66909 0.0400391C9.24243 0.0400391 11.3291 2.12671 11.3291 4.70004V9.57337H2.00909V4.70004C2.00909 2.12671 4.09576 0.0400391 6.66909 0.0400391Z" fill="#DE3A4D"/>
<path d="M11.582 9.57324H1.58203C1.02975 9.57324 0.582031 10.021 0.582031 10.5732V11.1266C0.582031 11.6789 1.02975 12.1266 1.58203 12.1266H11.582C12.1343 12.1266 12.582 11.6789 12.582 11.1266V10.5732C12.582 10.021 12.1343 9.57324 11.582 9.57324Z" fill="#4B4B9E"/>
<path fill-rule="evenodd" clip-rule="evenodd" d="M3.86788 2.52983C4.35246 1.96933 5.05375 1.50684 5.82863 1.50684C6.10477 1.50684 6.32863 1.73069 6.32863 2.00684C6.32863 2.28298 6.10477 2.50684 5.82863 2.50684C5.45017 2.50684 5.00145 2.74768 4.62437 3.18384C4.25062 3.61615 4.02863 4.14943 4.02863 4.58684C4.02863 4.86298 3.80477 5.08684 3.52863 5.08684C3.25248 5.08684 3.02863 4.86298 3.02863 4.58684C3.02863 3.85091 3.37996 3.09419 3.86788 2.52983Z" fill="#DD6875"/>
<path d="M6.66831 3.6001C7.74831 3.6001 8.62831 4.4801 8.62831 5.5601V9.57343H4.70831V5.5601C4.70831 4.4801 5.58831 3.6001 6.66831 3.6001Z" fill="#ED98A2"/>
</svg>
