<svg width="40" height="40" viewBox="0 0 40 40" fill="none" xmlns="http://www.w3.org/2000/svg">
<path d="M19.9987 36.6663C29.2034 36.6663 36.6654 29.2044 36.6654 19.9997C36.6654 10.7949 29.2034 3.33301 19.9987 3.33301C10.794 3.33301 3.33203 10.7949 3.33203 19.9997C3.33203 29.2044 10.794 36.6663 19.9987 36.6663Z" fill="#7E8999"/>
<path d="M23.7487 18.3328C24.6692 18.3328 25.4154 17.5867 25.4154 16.6662C25.4154 15.7457 24.6692 14.9995 23.7487 14.9995C22.8282 14.9995 22.082 15.7457 22.082 16.6662C22.082 17.5867 22.8282 18.3328 23.7487 18.3328Z" fill="#0F1114"/>
<path d="M16.2643 18.3328C17.1848 18.3328 17.931 17.5867 17.931 16.6662C17.931 15.7457 17.1848 14.9995 16.2643 14.9995C15.3438 14.9995 14.5977 15.7457 14.5977 16.6662C14.5977 17.5867 15.3438 18.3328 16.2643 18.3328Z" fill="#0F1114"/>
<path fill-rule="evenodd" clip-rule="evenodd" d="M25.8137 21.4824C27.2637 21.4824 28.3304 22.9158 27.8471 24.2658C26.6971 27.4824 23.6304 29.7991 20.0137 29.7991C16.3971 29.7991 13.3137 27.4991 12.1804 24.2658C11.6971 22.8991 12.7637 21.4824 14.2137 21.4824H25.8304H25.8137Z" fill="#0F1114"/>
</svg>
