<svg width="40" height="40" viewBox="0 0 40 40" fill="none" xmlns="http://www.w3.org/2000/svg">
<path d="M19.9987 36.6663C29.2034 36.6663 36.6654 29.2044 36.6654 19.9997C36.6654 10.7949 29.2034 3.33301 19.9987 3.33301C10.794 3.33301 3.33203 10.7949 3.33203 19.9997C3.33203 29.2044 10.794 36.6663 19.9987 36.6663Z" fill="url(#paint0_linear_4399_3364)"/>
<path d="M23.7331 18.3167C24.6535 18.3167 25.3997 17.5705 25.3997 16.6501C25.3997 15.7296 24.6535 14.9834 23.7331 14.9834C22.8126 14.9834 22.0664 15.7296 22.0664 16.6501C22.0664 17.5705 22.8126 18.3167 23.7331 18.3167Z" fill="#0F1114"/>
<path d="M16.2487 18.3167C17.1692 18.3167 17.9154 17.5705 17.9154 16.6501C17.9154 15.7296 17.1692 14.9834 16.2487 14.9834C15.3282 14.9834 14.582 15.7296 14.582 16.6501C14.582 17.5705 15.3282 18.3167 16.2487 18.3167Z" fill="#0F1114"/>
<path d="M20.1324 25.7334C17.3657 25.7334 15.899 24.2834 15.7324 24.1334C15.099 23.4668 15.1157 22.4168 15.7824 21.7834C16.4324 21.1501 17.4657 21.1668 18.1157 21.8001C18.1824 21.8501 18.8324 22.4168 20.1324 22.4168C21.299 22.4168 21.7157 21.9834 21.7323 21.9501C22.2657 21.2001 23.2657 21.0501 24.0324 21.5834C24.7824 22.1168 24.9324 23.1834 24.4157 23.9501C24.2824 24.1334 23.0657 25.7501 20.1324 25.7501V25.7334Z" fill="#0F1114"/>
<defs>
<linearGradient id="paint0_linear_4399_3364" x1="35.4552" y1="36.9512" x2="3.80857" y2="37.7698" gradientUnits="userSpaceOnUse">
<stop stop-color="#DDD9F8"/>
<stop offset="0.273644" stop-color="#E4E4FF"/>
<stop offset="0.610199" stop-color="#CCE4FF"/>
</linearGradient>
</defs>
</svg>
