<svg width="109" height="42" viewBox="0 0 109 42" fill="none" xmlns="http://www.w3.org/2000/svg">
<g clip-path="url(#clip0_3333_32082)">
<path d="M88.5691 40.6987C87.8462 40.6987 87.3069 40.0332 87.4568 39.3261L94.2255 7.39298H91.0822C90.3571 7.39298 89.8173 6.72325 89.9715 6.01465L90.9005 1.74105C91.0139 1.21845 91.4764 0.845703 92.0112 0.845703H107.342C108.063 0.845703 108.602 1.50873 108.455 2.2148L107.563 6.4884C107.453 7.01539 106.988 7.39298 106.45 7.39298H101.399L94.5304 39.7976C94.4192 40.3231 93.9554 40.6987 93.4184 40.6987H88.5691Z" fill="url(#paint0_linear_3333_32082)"/>
<path d="M64.4274 40.6987C63.7042 40.6987 63.1649 40.0325 63.3154 39.3251L71.3144 1.74586C71.4263 1.22097 71.8897 0.845703 72.4265 0.845703H81.4694C86.6502 0.845703 89.3829 4.03395 88.415 8.87324L86.5363 17.6978C85.9669 20.3168 84.4297 22.4802 82.2663 23.8466L82.3725 39.5541C82.3768 40.1851 81.8666 40.6987 81.2356 40.6987H76.3038C75.6692 40.6987 75.1576 40.1794 75.167 39.5448L75.3775 25.4977H73.3848L70.3861 39.7953C70.2756 40.3217 69.8113 40.6987 69.2736 40.6987H64.4274ZM79.4197 7.39298H77.2562L74.6943 19.3489H76.8577C78.1673 19.3489 79.1921 18.5518 79.4197 17.2424L81.1276 9.4995C81.3555 8.19004 80.6722 7.39298 79.4197 7.39298Z" fill="url(#paint1_linear_3333_32082)"/>
<path d="M50.3341 41.3819C44.7547 41.3819 41.7941 37.9091 42.8759 32.7281L49.5153 1.74435C49.6277 1.22018 50.0908 0.845703 50.6269 0.845703H55.4751C56.1988 0.845703 56.7384 1.51305 56.5867 2.22075L50.0494 32.7281C49.7648 34.0375 50.448 34.8346 51.7574 34.8346C53.01 34.8346 54.0347 34.0375 54.3194 32.7281L60.9588 1.74435C61.0711 1.22018 61.5343 0.845703 62.0704 0.845703H66.9186C67.6423 0.845703 68.1818 1.51305 68.0302 2.22075L61.4929 32.7281C60.4113 37.9091 55.9135 41.3819 50.3341 41.3819Z" fill="url(#paint2_linear_3333_32082)"/>
<path d="M21.7838 40.6987C21.0606 40.6987 20.5213 40.0325 20.6718 39.3251L28.6708 1.74586C28.7826 1.22097 29.2462 0.845703 29.7828 0.845703H38.5979C43.9497 0.845703 46.7395 4.14782 45.7145 9.04404L43.7219 18.438C42.6971 23.3341 38.4271 26.6364 33.1324 26.6364H30.5136L27.7431 39.796C27.6324 40.3222 27.1681 40.6987 26.6306 40.6987H21.7838ZM36.7762 7.39298H34.6128L31.9369 20.089H34.0435C35.3529 20.089 36.3776 19.292 36.6623 17.9825L38.4842 9.4995C38.7118 8.19004 38.0286 7.39298 36.7762 7.39298Z" fill="url(#paint3_linear_3333_32082)"/>
<path d="M8.17885 41.3815C2.59943 41.3815 -0.361083 37.9087 0.720643 32.7277L1.78245 27.7083C1.89363 27.1826 2.3575 26.8068 2.89469 26.8068H7.74423C8.46676 26.8068 9.00599 27.4718 8.85645 28.1787L7.89418 32.7277C7.60951 34.0371 8.29271 34.8342 9.60217 34.8342C10.8547 34.8342 11.8795 34.0371 12.1642 32.7277L13.189 28.1162C14.2137 23.3908 2.99796 22.7075 4.93368 13.5413L5.95848 8.75897C7.04018 3.57809 11.424 0.162109 16.9465 0.162109C22.469 0.162109 25.4864 3.57809 24.3478 8.75897L23.4021 13.1559C23.2896 13.6797 22.8265 14.0537 22.2908 14.0537H17.4544C16.7266 14.0537 16.1863 13.3793 16.3449 12.669L17.2312 8.70204C17.402 7.50645 16.7757 6.70938 15.5801 6.70938C14.3276 6.70938 13.3598 7.44951 13.132 8.70204L12.278 12.6874C11.3102 17.4697 22.469 18.096 20.5333 27.2622L19.3377 32.7277C18.256 37.9087 13.7583 41.3815 8.17885 41.3815Z" fill="url(#paint4_linear_3333_32082)"/>
</g>
<defs>
<linearGradient id="paint0_linear_3333_32082" x1="107.715" y1="41.0392" x2="87.7229" y2="41.3123" gradientUnits="userSpaceOnUse">
<stop stop-color="#DDD9F8"/>
<stop offset="0.273644" stop-color="#E4E4FF"/>
<stop offset="0.610199" stop-color="#CCE4FF"/>
</linearGradient>
<linearGradient id="paint1_linear_3333_32082" x1="87.6887" y1="41.0392" x2="63.6424" y2="41.4344" gradientUnits="userSpaceOnUse">
<stop stop-color="#DDD9F8"/>
<stop offset="0.273644" stop-color="#E4E4FF"/>
<stop offset="0.610199" stop-color="#CCE4FF"/>
</linearGradient>
<linearGradient id="paint2_linear_3333_32082" x1="67.1337" y1="41.7283" x2="43.0086" y2="42.1193" gradientUnits="userSpaceOnUse">
<stop stop-color="#DDD9F8"/>
<stop offset="0.273644" stop-color="#E4E4FF"/>
<stop offset="0.610199" stop-color="#CCE4FF"/>
</linearGradient>
<linearGradient id="paint3_linear_3333_32082" x1="45.0065" y1="41.0392" x2="20.9983" y2="41.4331" gradientUnits="userSpaceOnUse">
<stop stop-color="#DDD9F8"/>
<stop offset="0.273644" stop-color="#E4E4FF"/>
<stop offset="0.610199" stop-color="#CCE4FF"/>
</linearGradient>
<linearGradient id="paint4_linear_3333_32082" x1="23.7118" y1="41.7337" x2="0.834262" y2="42.0796" gradientUnits="userSpaceOnUse">
<stop stop-color="#DDD9F8"/>
<stop offset="0.273644" stop-color="#E4E4FF"/>
<stop offset="0.610199" stop-color="#CCE4FF"/>
</linearGradient>
<clipPath id="clip0_3333_32082">
<rect width="108" height="41.3811" fill="white" transform="translate(0.5)"/>
</clipPath>
</defs>
</svg>
