<svg width="24" height="24" viewBox="0 0 24 24" fill="none" xmlns="http://www.w3.org/2000/svg">
<path d="M12.2227 6.88461C13.0547 6.88461 14.0977 6.30483 14.7188 5.53179C15.2812 4.83121 15.6914 3.85283 15.6914 2.87444C15.6914 2.74158 15.6797 2.60871 15.6562 2.5C14.7305 2.53624 13.6172 3.14018 12.9492 3.94946C12.4219 4.56548 11.9414 5.53179 11.9414 6.52225C11.9414 6.6672 11.9648 6.81214 11.9766 6.86046C12.0352 6.87254 12.1289 6.88461 12.2227 6.88461ZM9.29297 21.5C10.4297 21.5 10.9336 20.7149 12.3516 20.7149C13.793 20.7149 14.1094 21.4758 15.375 21.4758C16.6172 21.4758 17.4492 20.2921 18.2344 19.1325C19.1133 17.8039 19.4766 16.4994 19.5 16.439C19.418 16.4148 17.0391 15.4123 17.0391 12.5979C17.0391 10.158 18.9141 9.0588 19.0195 8.97425C17.7773 7.13827 15.8906 7.08996 15.375 7.08996C13.9805 7.08996 12.8438 7.95963 12.1289 7.95963C11.3555 7.95963 10.3359 7.13827 9.12891 7.13827C6.83203 7.13827 4.5 9.09504 4.5 12.7912C4.5 15.0861 5.36719 17.514 6.43359 19.0842C7.34766 20.4129 8.14453 21.5 9.29297 21.5Z" fill="#0F1114"/>
</svg>
