<svg width="16" height="20" viewBox="0 0 16 20" fill="none" xmlns="http://www.w3.org/2000/svg">
<path d="M8.22266 4.88461C9.05469 4.88461 10.0977 4.30483 10.7188 3.53179C11.2812 2.83121 11.6914 1.85283 11.6914 0.874443C11.6914 0.741576 11.6797 0.608709 11.6562 0.5C10.7305 0.536236 9.61719 1.14018 8.94922 1.94946C8.42188 2.56548 7.94141 3.53179 7.94141 4.52225C7.94141 4.6672 7.96484 4.81214 7.97656 4.86046C8.03516 4.87254 8.12891 4.88461 8.22266 4.88461ZM5.29297 19.5C6.42969 19.5 6.93359 18.7149 8.35156 18.7149C9.79297 18.7149 10.1094 19.4758 11.375 19.4758C12.6172 19.4758 13.4492 18.2921 14.2344 17.1325C15.1133 15.8039 15.4766 14.4994 15.5 14.439C15.418 14.4148 13.0391 13.4123 13.0391 10.5979C13.0391 8.15798 14.9141 7.0588 15.0195 6.97425C13.7773 5.13827 11.8906 5.08996 11.375 5.08996C9.98047 5.08996 8.84375 5.95963 8.12891 5.95963C7.35547 5.95963 6.33594 5.13827 5.12891 5.13827C2.83203 5.13827 0.5 7.09504 0.5 10.7912C0.5 13.0861 1.36719 15.514 2.43359 17.0842C3.34766 18.4129 4.14453 19.5 5.29297 19.5Z" fill="#0F1114"/>
</svg>
