<svg width="21" height="19" viewBox="0 0 21 19" fill="none" xmlns="http://www.w3.org/2000/svg">
<path d="M8.93937 1.56999L1.23937 14.9C0.339369 16.46 1.45937 18.4 3.25937 18.4H18.6494C20.4494 18.4 21.5694 16.45 20.6694 14.9L12.9694 1.56999C12.0694 0.00999391 9.81937 0.00999391 8.92937 1.56999H8.93937Z" fill="url(#paint0_linear_5570_18880)"/>
<path fill-rule="evenodd" clip-rule="evenodd" d="M10.9609 4.81C11.5132 4.81 11.9609 5.25771 11.9609 5.81V10.72C11.9609 11.2723 11.5132 11.72 10.9609 11.72C10.4087 11.72 9.96094 11.2723 9.96094 10.72V5.81C9.96094 5.25771 10.4087 4.81 10.9609 4.81Z" fill="#FDF3F4"/>
<path d="M11.9609 14.41C11.9609 14.9623 11.5132 15.41 10.9609 15.41C10.4087 15.41 9.96094 14.9623 9.96094 14.41C9.96094 13.8577 10.4087 13.41 10.9609 13.41C11.5132 13.41 11.9609 13.8577 11.9609 14.41Z" fill="#FDF3F4"/>
<defs>
<linearGradient id="paint0_linear_5570_18880" x1="10.9544" y1="0.399994" x2="10.9544" y2="18.4" gradientUnits="userSpaceOnUse">
<stop stop-color="#DD6875"/>
<stop offset="1" stop-color="#ED98A2"/>
</linearGradient>
</defs>
</svg>
